<svg xmlns="http://www.w3.org/2000/svg" viewBox="0 0 500 500"><g id="freepik--City--inject-18"><g id="freepik--city--inject-18"><path d="M15.83,168.43V312.61H486.28v-116l-16.8-9.7V149.7l-16.8-9.7-29.4,17V122.22l-21-12.13L376.9,124.77v42l-20.83-12V134.21l-21-12.13-50.41,29.11v7.39l-18.32,10.51-15.13-8.94-17,9.84V131.28l-25.2-14.55-16.8,9.7v36.33l-16.8-9.7-31.6,18.24V149.54L125,138.64l-21,12.13v17.36L95.64,173V156.3l-21-12.12V119.92l-16.8-9.7L41,119.92v48.51l-12.6-7.28Z" style="fill:#f0f0f0"></path></g></g><g id="freepik--Floor--inject-18"><g id="freepik--floor--inject-18"><g id="freepik--floor--inject-18"><ellipse id="freepik--Grass--inject-18" cx="250.48" cy="339.83" rx="244.73" ry="149.77" style="fill:#f5f5f5"></ellipse></g><g id="freepik--grass--inject-18"><path d="M123.84,239.91a7.21,7.21,0,0,0-1.07-2.15,7.85,7.85,0,0,0-1-1.06c-.24-.2-.6-.55-.94-.45-.1,0-.09.21,0,.28.22.29.55.49.75.81a4,4,0,0,1,.36.88,14.86,14.86,0,0,1,.72,2.38,17.14,17.14,0,0,1,.31,2.25c0,.38,0,.75.09,1.12a4.92,4.92,0,0,0,.26,1c0,.12.24.33.37.19a3.75,3.75,0,0,0,.67-2.73A9.49,9.49,0,0,0,123.84,239.91Z" style="fill:#e0e0e0"></path><path d="M126.61,228.37c-1.6,2-1.62,4.85-1.63,7.29,0,1.47,0,3,0,4.41a17.59,17.59,0,0,0,.4,4.71c.06.17.4.5.51.19a14.34,14.34,0,0,0,.32-4.35c0-1.45,0-2.9,0-4.34a34.19,34.19,0,0,1,.19-3.92c.14-1.23.42-2.43.57-3.65C127,228.56,126.77,228.17,126.61,228.37Z" style="fill:#e0e0e0"></path><path d="M130.36,236.18c-.83.16-1.43,1.1-1.8,1.8a9,9,0,0,0-.73,2,13.8,13.8,0,0,0-.36,2.39,3.45,3.45,0,0,0,.34,2.55c.07.08.27.19.37.1.62-.52.47-1.54.52-2.28a17.7,17.7,0,0,1,.34-2.41,10.74,10.74,0,0,1,.67-2,8.86,8.86,0,0,0,.82-1.87C130.55,236.39,130.51,236.15,130.36,236.18Z" style="fill:#e0e0e0"></path><path d="M286.28,460.61a7.1,7.1,0,0,0-1.07-2.15,7.85,7.85,0,0,0-1-1.06c-.24-.21-.6-.55-.94-.45-.1,0-.09.21,0,.28.22.29.55.49.75.81a4.1,4.1,0,0,1,.36.87,14.29,14.29,0,0,1,.72,2.39,17.14,17.14,0,0,1,.31,2.25c0,.38,0,.75.1,1.12a4.91,4.91,0,0,0,.25,1c0,.12.24.32.37.19a3.75,3.75,0,0,0,.67-2.73A9.49,9.49,0,0,0,286.28,460.61Z" style="fill:#e0e0e0"></path><path d="M289.05,449.07c-1.6,2-1.61,4.85-1.63,7.29,0,1.47,0,2.94,0,4.41a17.59,17.59,0,0,0,.4,4.71c.06.17.4.5.51.19a14.34,14.34,0,0,0,.32-4.35c0-1.45,0-2.9,0-4.34a36.62,36.62,0,0,1,.19-3.92c.15-1.23.42-2.43.58-3.65C289.46,449.26,289.22,448.87,289.05,449.07Z" style="fill:#e0e0e0"></path><path d="M292.8,456.88c-.83.16-1.43,1.1-1.8,1.8a9,9,0,0,0-.73,2,13.65,13.65,0,0,0-.36,2.39,3.42,3.42,0,0,0,.34,2.54c.07.09.27.2.37.11.62-.52.47-1.54.52-2.28a17.7,17.7,0,0,1,.34-2.41,10.74,10.74,0,0,1,.67-2,9.44,9.44,0,0,0,.83-1.87C293,457.09,293,456.85,292.8,456.88Z" style="fill:#e0e0e0"></path><path d="M292.91,311.44a6.14,6.14,0,0,0-.94-1.88,6.5,6.5,0,0,0-.89-.93c-.2-.18-.52-.48-.82-.39-.08,0-.08.19,0,.24a8.81,8.81,0,0,1,.66.71,3.69,3.69,0,0,1,.32.77,13.84,13.84,0,0,1,.63,2.08,14.72,14.72,0,0,1,.27,2c0,.33,0,.65.08,1a4.63,4.63,0,0,0,.22.89c0,.1.21.28.32.16a3.3,3.3,0,0,0,.6-2.39A8.37,8.37,0,0,0,292.91,311.44Z" style="fill:#e0e0e0"></path><path d="M295.34,301.34c-1.41,1.74-1.42,4.25-1.44,6.38,0,1.29,0,2.58.05,3.86a14.89,14.89,0,0,0,.35,4.12c0,.15.34.44.44.17a12.42,12.42,0,0,0,.28-3.81c0-1.27,0-2.53,0-3.8a30,30,0,0,1,.17-3.42c.12-1.08.37-2.13.5-3.2C295.7,301.51,295.48,301.17,295.34,301.34Z" style="fill:#e0e0e0"></path><path d="M298.61,308.18c-.72.14-1.25,1-1.57,1.57a7.89,7.89,0,0,0-.64,1.76,12.26,12.26,0,0,0-.31,2.09,3,3,0,0,0,.3,2.23c.06.07.23.17.32.09.54-.46.41-1.35.46-2a15.21,15.21,0,0,1,.29-2.12,9.41,9.41,0,0,1,.58-1.72,7.48,7.48,0,0,0,.73-1.64C298.78,308.36,298.75,308.15,298.61,308.18Z" style="fill:#e0e0e0"></path><path d="M32,335a6.12,6.12,0,0,0-.93-1.88,6,6,0,0,0-.89-.92c-.21-.18-.52-.48-.82-.4-.09,0-.08.19,0,.24.2.26.48.44.66.72a3.94,3.94,0,0,1,.32.76,15.1,15.1,0,0,1,.63,2.08,16.5,16.5,0,0,1,.26,2c0,.33,0,.65.09,1a4,4,0,0,0,.22.89c0,.1.21.28.32.16a3.27,3.27,0,0,0,.59-2.39A8.05,8.05,0,0,0,32,335Z" style="fill:#e0e0e0"></path><path d="M34.43,324.88C33,326.61,33,329.12,33,331.26c0,1.28,0,2.57,0,3.86a15.35,15.35,0,0,0,.35,4.12c0,.14.35.43.45.16a12.42,12.42,0,0,0,.27-3.81c0-1.26,0-2.53,0-3.8a30.13,30.13,0,0,1,.17-3.42c.12-1.07.36-2.13.5-3.2C34.79,325,34.58,324.7,34.43,324.88Z" style="fill:#e0e0e0"></path><path d="M37.71,331.71c-.72.14-1.25,1-1.58,1.58A7.17,7.17,0,0,0,35.5,335a13.54,13.54,0,0,0-.32,2.09,3,3,0,0,0,.3,2.23c.06.07.23.17.33.09.54-.46.4-1.35.45-2a14.89,14.89,0,0,1,.3-2.11,9.51,9.51,0,0,1,.58-1.73,7.75,7.75,0,0,0,.73-1.64C37.88,331.89,37.85,331.68,37.71,331.71Z" style="fill:#e0e0e0"></path><path d="M459.33,350.5a6.12,6.12,0,0,0-.93-1.88,7,7,0,0,0-.89-.92c-.21-.18-.53-.48-.82-.4-.09,0-.08.19,0,.24.2.26.48.44.66.72a4.68,4.68,0,0,1,.32.76,15.1,15.1,0,0,1,.63,2.08,16.5,16.5,0,0,1,.26,2c0,.33.05.65.09,1a3.86,3.86,0,0,0,.22.89c0,.1.21.28.32.16a3.27,3.27,0,0,0,.59-2.39A8.05,8.05,0,0,0,459.33,350.5Z" style="fill:#e0e0e0"></path><path d="M461.76,340.41c-1.4,1.73-1.41,4.24-1.43,6.38,0,1.28,0,2.57,0,3.86a15.32,15.32,0,0,0,.35,4.12c0,.14.35.43.44.16a12.12,12.12,0,0,0,.28-3.81c0-1.26,0-2.53,0-3.8a30.13,30.13,0,0,1,.17-3.42c.12-1.07.36-2.13.5-3.2C462.12,340.57,461.9,340.23,461.76,340.41Z" style="fill:#e0e0e0"></path><path d="M465,347.24c-.72.14-1.25,1-1.58,1.58a7.64,7.64,0,0,0-.64,1.75,14.84,14.84,0,0,0-.31,2.09,3,3,0,0,0,.3,2.23c.06.07.23.17.33.09.54-.46.4-1.35.45-2a13.57,13.57,0,0,1,.3-2.11,9.51,9.51,0,0,1,.58-1.73,7.24,7.24,0,0,0,.72-1.64C465.21,347.42,465.18,347.21,465,347.24Z" style="fill:#e0e0e0"></path><path d="M424.61,287.58a6,6,0,0,0-.93-1.87,6,6,0,0,0-.89-.93c-.21-.18-.52-.48-.82-.4-.08,0-.08.19,0,.25a8.81,8.81,0,0,1,.66.71,4.22,4.22,0,0,1,.32.76,15.1,15.1,0,0,1,.63,2.08,16.08,16.08,0,0,1,.26,2c0,.33.05.65.09,1a4,4,0,0,0,.22.89c0,.1.2.28.32.16a3.29,3.29,0,0,0,.59-2.39A8.37,8.37,0,0,0,424.61,287.58Z" style="fill:#e0e0e0"></path><path d="M427,277.51c-1.4,1.73-1.41,4.23-1.43,6.36,0,1.29,0,2.57,0,3.85a14.82,14.82,0,0,0,.35,4.11c0,.15.34.44.44.17a12.67,12.67,0,0,0,.28-3.8c0-1.26,0-2.53,0-3.79a30.13,30.13,0,0,1,.17-3.42c.12-1.07.36-2.12.5-3.18C427.39,277.68,427.18,277.34,427,277.51Z" style="fill:#e0e0e0"></path><path d="M430.3,284.32c-.72.14-1.25,1-1.57,1.58a7.64,7.64,0,0,0-.64,1.75,13.21,13.21,0,0,0-.31,2.08,3,3,0,0,0,.3,2.23c.06.07.23.17.32.09.54-.46.41-1.35.46-2a15.07,15.07,0,0,1,.29-2.11,10.23,10.23,0,0,1,.58-1.72,7.67,7.67,0,0,0,.73-1.63C430.47,284.51,430.44,284.3,430.3,284.32Z" style="fill:#e0e0e0"></path><path d="M181.58,465a6.49,6.49,0,0,0-1-2,7.11,7.11,0,0,0-.93-1c-.22-.19-.55-.5-.86-.41-.09,0-.08.2,0,.25.2.28.51.46.69.75a4.34,4.34,0,0,1,.33.8,14.82,14.82,0,0,1,.66,2.18,17.59,17.59,0,0,1,.28,2.06c0,.34.05.68.08,1a4.32,4.32,0,0,0,.24.94c0,.1.21.29.33.16a3.4,3.4,0,0,0,.62-2.49A8.71,8.71,0,0,0,181.58,465Z" style="fill:#e0e0e0"></path><path d="M184.11,454.39c-1.46,1.81-1.48,4.44-1.49,6.67,0,1.35,0,2.69,0,4a15.81,15.81,0,0,0,.37,4.3c.05.16.36.46.46.18a13,13,0,0,0,.29-4c0-1.32,0-2.64,0-4A33,33,0,0,1,184,458c.13-1.12.39-2.22.52-3.34C184.49,454.57,184.26,454.21,184.11,454.39Z" style="fill:#e0e0e0"></path><path d="M187.54,461.53c-.76.15-1.31,1-1.65,1.65a8.63,8.63,0,0,0-.67,1.84,14.5,14.5,0,0,0-.32,2.18,3.16,3.16,0,0,0,.31,2.33c.06.08.24.18.34.1.57-.48.43-1.41.48-2.08a14.88,14.88,0,0,1,.31-2.21,9.61,9.61,0,0,1,.6-1.81,7.45,7.45,0,0,0,.76-1.71C187.72,461.73,187.68,461.51,187.54,461.53Z" style="fill:#e0e0e0"></path></g></g></g><g id="freepik--Clouds--inject-18"><path id="freepik--Cloud--inject-18" d="M303.86,56.55a10.51,10.51,0,0,0-3.53-.66c-1.15-.09-1.51-.31-1.73-.56a8.43,8.43,0,0,0-10.13-3A6.48,6.48,0,0,0,280.83,48c.13-3.56-4.42-7.39-8.5-8.26-3.92-.83-7.33-.48-9.57,2.1-2.39-4.68-11.77-6-16.84-3.52-2.92,1.42-5.39,2.88-6.6,5.55a11.09,11.09,0,0,0-1.1,5.32c-2-1.74-5.94-2.21-8.58-1.19-2.85,1.1-3.07,3.25-3.21,5.43a9.9,9.9,0,0,0-5.18-.09c-1.8.53-2.83,1.94-2.58,3.07-1.42-.07-4.81,1.07-4.42,2.57.44,1.68,4.3,1.51,5.74,1.46a26.33,26.33,0,0,0,4-.63,6.48,6.48,0,0,0,2.1.4c2.46,0,3.5-1.08,3.9-2,1.2,2.53,5.47,4.45,8.49,5.22,5.68,1.46,13.73.57,17.23-3.68a6.29,6.29,0,0,0,1.7,2.07A9.88,9.88,0,0,0,262.71,64c2.33.22,8.6.52,10.36-3.2,1.25,2.47,6.83,3.6,11.08,3a17.32,17.32,0,0,0,4.75-1.43,29.87,29.87,0,0,0,2.73-1.64,2.29,2.29,0,0,1,2.33-.16c2.91.88,6.29,1.24,9.26,0C305.59,59.54,306.08,57.55,303.86,56.55Z" style="fill:#f5f5f5"></path><path id="freepik--cloud--inject-18" d="M207.94,87a7.17,7.17,0,0,0-2.34-.44c-.76-.06-1-.21-1.15-.37a5.57,5.57,0,0,0-6.7-2,4.29,4.29,0,0,0-5.06-2.86c.09-2.36-2.92-4.89-5.63-5.46s-4.85-.32-6.33,1.38c-1.58-3.09-7.79-4-11.15-2.33-1.93.94-3.57,1.91-4.37,3.68a7.38,7.38,0,0,0-.73,3.52,6.2,6.2,0,0,0-5.68-.79c-1.88.73-2,2.15-2.12,3.6a6.6,6.6,0,0,0-3.43-.07c-1.19.36-1.87,1.29-1.71,2-.94-.05-3.18.71-2.92,1.7s2.84,1,3.8,1a17.75,17.75,0,0,0,2.67-.42,4.15,4.15,0,0,0,1.39.26c1.63,0,2.32-.71,2.58-1.31.79,1.67,3.62,2.94,5.62,3.46,3.76,1,9.09.37,11.41-2.44a4,4,0,0,0,1.12,1.36,6.55,6.55,0,0,0,3.48,1.42c1.55.14,5.7.34,6.87-2.12.82,1.63,4.52,2.38,7.32,2a11.4,11.4,0,0,0,3.15-1,18.41,18.41,0,0,0,1.81-1.08,1.49,1.49,0,0,1,1.54-.11,9.21,9.21,0,0,0,6.13,0C209.08,88.93,209.41,87.61,207.94,87Z" style="fill:#f5f5f5"></path></g><g id="freepik--Sun--inject-18"><circle id="freepik--sun--inject-18" cx="95" cy="52.09" r="19.47" style="fill:#ffbda7"></circle></g><g id="freepik--Shadows--inject-18"><path id="freepik--Shadow--inject-18" d="M189.24,227.42,88.91,285.27l7.53,4.43,100.33-57.93Zm-34.36,30,1,.56L196,234.85l-1-.56Z" style="opacity:0.1"></path><ellipse id="freepik--shadow--inject-18" cx="148.44" cy="399.11" rx="82.35" ry="47.54" style="fill:#e0e0e0"></ellipse><ellipse id="freepik--shadow--inject-18" cx="354.48" cy="409.02" rx="78.5" ry="45.32" style="fill:#e0e0e0"></ellipse><ellipse id="freepik--shadow--inject-18" cx="251.05" cy="423.57" rx="31.84" ry="18.38" style="fill:#e0e0e0"></ellipse></g><g id="freepik--Sign--inject-18"><g id="freepik--Signal--inject-18"><polygon points="96.15 122.97 96.15 288.28 92.96 286.45 92.96 121.06 96.15 122.97" style="fill:#263238"></polygon><polygon points="100.49 120.4 100.49 285.77 96.15 288.28 96.15 122.97 100.49 120.4" style="fill:#37474f"></polygon><polygon points="100.49 120.4 96.15 122.97 92.96 121.06 97.3 118.56 100.49 120.4" style="fill:#455a64"></polygon><path d="M66.2,156.49l66.31-38.28c2.46-1.42,4.46-.27,4.46,2.57v61.48a9.86,9.86,0,0,1-4.46,7.72L66.2,228.26c-2.46,1.42-4.45.27-4.45-2.57V164.21A9.85,9.85,0,0,1,66.2,156.49Z" style="fill:#fafafa"></path><path d="M64.21,229.37A2.84,2.84,0,0,1,62.8,229a3.61,3.61,0,0,1-1.55-3.32V164.21a10.42,10.42,0,0,1,4.7-8.15l66.31-38.28a3.2,3.2,0,0,1,5.21,3v61.48a10.4,10.4,0,0,1-4.71,8.15l-66.3,38.28A4.5,4.5,0,0,1,64.21,229.37ZM134.5,118.1a3.59,3.59,0,0,0-1.74.54L66.45,156.93a9.29,9.29,0,0,0-4.2,7.28v61.48a2.66,2.66,0,0,0,1,2.45,2.7,2.7,0,0,0,2.66-.31l66.3-38.29a9.29,9.29,0,0,0,4.21-7.28V120.78a2.66,2.66,0,0,0-1.06-2.45A1.81,1.81,0,0,0,134.5,118.1Z" style="fill:#e0e0e0"></path><path d="M131.11,125.77l0,56.49a4.31,4.31,0,0,1-1.53,2.66l-62,35.79,0-56.5a4.26,4.26,0,0,1,1.53-2.66l62-35.78m1.95-3.38L68.15,159.87a6,6,0,0,0-2.51,4.34l0,59.87,64.91-37.48a6,6,0,0,0,2.5-4.34V122.39Z" style="fill:#e0e0e0"></path><path d="M79.74,169a1.6,1.6,0,0,0-1.1-.11,5.17,5.17,0,0,0-1.47.6l-3.63,2.1a.54.54,0,0,0-.24.27.82.82,0,0,0-.11.38v10.95a.31.31,0,0,0,.11.27.2.2,0,0,0,.24,0l1.66-1a.6.6,0,0,0,.25-.27.94.94,0,0,0,.1-.39v-3.45l1.62-.94a7.72,7.72,0,0,0,1.47-1.1,6.88,6.88,0,0,0,1.1-1.38,6.74,6.74,0,0,0,.71-1.65,7.19,7.19,0,0,0,.25-1.89,4.32,4.32,0,0,0-.25-1.58A1.51,1.51,0,0,0,79.74,169ZM78,174a2.66,2.66,0,0,1-.88.82l-1.56.9V173l1.56-.9a1.12,1.12,0,0,1,.88-.19c.24.07.35.34.35.82A2.12,2.12,0,0,1,78,174Zm10.16-1.7-3.88,2.24v-8.7a.33.33,0,0,0-.1-.26.23.23,0,0,0-.25,0l-1.66,1a.75.75,0,0,0-.24.28.77.77,0,0,0-.1.38v10.95a.3.3,0,0,0,.1.26.21.21,0,0,0,.24,0l5.89-3.4a.85.85,0,0,0,.34-.66v-1.79a.31.31,0,0,0-.1-.27A.2.2,0,0,0,88.15,172.29Zm7.8-4.51-4,2.32v-1.9l3.64-2.1a.65.65,0,0,0,.24-.27.8.8,0,0,0,.1-.38v-1.8a.29.29,0,0,0-.1-.26.21.21,0,0,0-.24,0l-3.64,2.1v-1.83l3.92-2.26a.75.75,0,0,0,.24-.28.77.77,0,0,0,.1-.38v-1.8a.3.3,0,0,0-.1-.26.2.2,0,0,0-.24,0l-5.92,3.42a.6.6,0,0,0-.25.27.94.94,0,0,0-.1.38v11a.34.34,0,0,0,.1.27.23.23,0,0,0,.25,0l6-3.48a.59.59,0,0,0,.24-.27.8.8,0,0,0,.1-.38V168a.3.3,0,0,0-.1-.26A.21.21,0,0,0,96,167.78ZM103,155.1a.5.5,0,0,0-.18-.27c-.09-.07-.22-.06-.39,0l-2.06,1.19a1,1,0,0,0-.39.41,1.79,1.79,0,0,0-.18.48l-2.77,12.28a1,1,0,0,0,0,.28.26.26,0,0,0,.08.22.17.17,0,0,0,.2,0l1.6-.92a.89.89,0,0,0,.36-.36,1,1,0,0,0,.13-.35l.36-1.62,3.38-1.95.36,1.2a.34.34,0,0,0,.13.21c.07,0,.19,0,.36-.07l1.6-.92a.51.51,0,0,0,.2-.23.6.6,0,0,0,.08-.31.55.55,0,0,0,0-.22Zm-2.63,8.37,1-4.67,1,3.48Zm12.92-8.93a1.41,1.41,0,0,0-.87-.22,4.85,4.85,0,0,0-1.22.23c-.46.15-.85.26-1.17.35a3.07,3.07,0,0,1-.75.16.59.59,0,0,1-.41-.08.42.42,0,0,1-.12-.35,1.06,1.06,0,0,1,.11-.49,1.62,1.62,0,0,1,.28-.42,2.77,2.77,0,0,1,.39-.37L110,153a2.13,2.13,0,0,1,.56-.23,1,1,0,0,1,.39,0,.49.49,0,0,1,.23.11l.12.09a.42.42,0,0,0,.22.08.59.59,0,0,0,.29-.1l1.66-1a.53.53,0,0,0,.19-.22.68.68,0,0,0,.08-.31,1.8,1.8,0,0,0-.29-1,1.7,1.7,0,0,0-.78-.64,2.32,2.32,0,0,0-1.17-.13,4.19,4.19,0,0,0-1.5.55,7.28,7.28,0,0,0-1.49,1.16,8.72,8.72,0,0,0-1.14,1.46,7.5,7.5,0,0,0-.72,1.59,5.34,5.34,0,0,0-.24,1.53,2.57,2.57,0,0,0,.6,2,2,2,0,0,0,1.91.14l1.22-.36a8.48,8.48,0,0,1,.84-.21,1,1,0,0,1,.5,0c.11,0,.16.16.16.33a1.35,1.35,0,0,1-.45,1,5.06,5.06,0,0,1-1.12.85,1.76,1.76,0,0,1-.64.25,1,1,0,0,1-.44,0,.72.72,0,0,1-.27-.16l-.15-.13a.42.42,0,0,0-.21-.06.63.63,0,0,0-.28.1l-1.66,1a.48.48,0,0,0-.18.21.64.64,0,0,0-.09.31,2.06,2.06,0,0,0,.31,1.1,1.68,1.68,0,0,0,.8.66,2.36,2.36,0,0,0,1.23.09,4.6,4.6,0,0,0,1.58-.6,8.5,8.5,0,0,0,1.57-1.16,8.13,8.13,0,0,0,1.24-1.46,6.56,6.56,0,0,0,.82-1.63,5.14,5.14,0,0,0,.3-1.71,4.15,4.15,0,0,0-.17-1.29A1.36,1.36,0,0,0,113.32,154.54Zm8.34-1.6-4,2.32v-1.9l3.64-2.1a.65.65,0,0,0,.24-.27.81.81,0,0,0,.1-.39v-1.79a.32.32,0,0,0-.1-.27.21.21,0,0,0-.24,0l-3.64,2.1v-1.83l3.92-2.26a.75.75,0,0,0,.24-.28.94.94,0,0,0,.1-.38v-1.8a.33.33,0,0,0-.1-.26.2.2,0,0,0-.24,0l-5.93,3.42a.65.65,0,0,0-.24.27.8.8,0,0,0-.1.38v11a.29.29,0,0,0,.1.26.19.19,0,0,0,.24,0l6-3.48a.65.65,0,0,0,.24-.27.8.8,0,0,0,.1-.38v-1.8a.29.29,0,0,0-.1-.26A.19.19,0,0,0,121.66,152.94Zm3.87-11.26a.2.2,0,0,0-.24,0l-1.6.92a.75.75,0,0,0-.24.28.77.77,0,0,0-.1.38v7.3a.31.31,0,0,0,.1.27.2.2,0,0,0,.24,0l1.6-.92a.61.61,0,0,0,.24-.28.79.79,0,0,0,.11-.38V142A.31.31,0,0,0,125.53,141.68Zm-.24,9.25-1.6.92a.71.71,0,0,0-.24.27.81.81,0,0,0-.1.39v1.71a.3.3,0,0,0,.1.26.21.21,0,0,0,.24,0l1.6-.93a.54.54,0,0,0,.24-.27.82.82,0,0,0,.11-.38v-1.72a.3.3,0,0,0-.11-.26A.2.2,0,0,0,125.29,150.93Z" style="fill:#BA68C8"></path><path d="M81.13,186.25c0,.1,0,.23,0,.39s0,.34,0,.51,0,.35,0,.52,0,.29,0,.38a1.84,1.84,0,0,0,.07.43.56.56,0,0,0,.18.29.44.44,0,0,0,.3.1,1,1,0,0,0,.46-.16,2.06,2.06,0,0,0,.45-.35,2.34,2.34,0,0,0,.29-.37,2.11,2.11,0,0,0,.17-.38,2.77,2.77,0,0,0,.09-.33,1.7,1.7,0,0,1,.09-.29.47.47,0,0,1,.19-.18l1-.6a.11.11,0,0,1,.12,0,.16.16,0,0,1,0,.14,3.6,3.6,0,0,1-.2,1.14,4.54,4.54,0,0,1-.53,1.14,5.16,5.16,0,0,1-.79,1,4.2,4.2,0,0,1-1,.78,2.53,2.53,0,0,1-1,.37,1.26,1.26,0,0,1-.78-.18,1.34,1.34,0,0,1-.49-.64,3.07,3.07,0,0,1-.2-1c0-.29,0-.6,0-.93s0-.66,0-1a4.93,4.93,0,0,1,.2-1.22,5.37,5.37,0,0,1,.49-1.22,5.68,5.68,0,0,1,.77-1.07,4.63,4.63,0,0,1,1-.83,2.74,2.74,0,0,1,1-.36,1.43,1.43,0,0,1,.79.11,1.05,1.05,0,0,1,.53.53,1.91,1.91,0,0,1,.2.91.39.39,0,0,1,0,.2.33.33,0,0,1-.12.14l-1,.61c-.1.05-.16.06-.19,0a.47.47,0,0,1-.09-.19,1,1,0,0,0-.09-.22.42.42,0,0,0-.17-.18.53.53,0,0,0-.29,0,1.1,1.1,0,0,0-.45.18,1.84,1.84,0,0,0-.46.36,2.21,2.21,0,0,0-.3.45,2.3,2.3,0,0,0-.18.5A3,3,0,0,0,81.13,186.25Z" style="fill:#455a64"></path><path d="M89.41,184.4a.14.14,0,0,1,.15,0,.22.22,0,0,1,.06.17v1.13a.53.53,0,0,1-.06.24.39.39,0,0,1-.15.18l-3.72,2.14a.12.12,0,0,1-.15,0,.19.19,0,0,1-.07-.17v-6.92a.47.47,0,0,1,.07-.24.36.36,0,0,1,.15-.17l1-.61a.14.14,0,0,1,.15,0,.18.18,0,0,1,.07.17v5.49Z" style="fill:#455a64"></path><path d="M94.34,181.56a.11.11,0,0,1,.15,0,.2.2,0,0,1,.06.16v1.14a.53.53,0,0,1-.06.24.43.43,0,0,1-.15.17l-3.81,2.2a.14.14,0,0,1-.15,0,.18.18,0,0,1-.07-.16v-6.92a.44.44,0,0,1,.07-.24.36.36,0,0,1,.15-.17l3.74-2.17a.14.14,0,0,1,.15,0,.19.19,0,0,1,.07.17v1.13a.44.44,0,0,1-.07.24.39.39,0,0,1-.15.18L91.8,179v1.15l2.29-1.32a.14.14,0,0,1,.16,0,.22.22,0,0,1,.06.17v1.13a.53.53,0,0,1-.06.24.48.48,0,0,1-.16.18l-2.29,1.32V183Z" style="fill:#455a64"></path><path d="M98.45,173.4c.1-.06.19-.07.24,0a.33.33,0,0,1,.12.17l1.75,5.73a.39.39,0,0,1,0,.34.36.36,0,0,1-.13.14l-1,.59c-.1.06-.18.07-.23,0a.26.26,0,0,1-.08-.13l-.23-.76-2.13,1.23-.23,1a.63.63,0,0,1-.08.23.61.61,0,0,1-.23.22l-1,.58a.12.12,0,0,1-.13,0,.18.18,0,0,1,0-.14,1.05,1.05,0,0,1,0-.18l1.75-7.75a3.21,3.21,0,0,1,.12-.31.6.6,0,0,1,.25-.25Zm-1.3,5.43,1.3-.75-.65-2.19Z" style="fill:#455a64"></path><path d="M104.89,177.18a.23.23,0,0,1-.22,0,.35.35,0,0,1-.11-.09l-1.83-2.6v3.62a.55.55,0,0,1-.07.24.36.36,0,0,1-.15.17l-1.05.61a.14.14,0,0,1-.15,0,.17.17,0,0,1-.07-.16v-6.92a.44.44,0,0,1,.07-.24.36.36,0,0,1,.15-.17l.83-.49a.23.23,0,0,1,.22,0c.06,0,.1.06.11.09l1.84,2.6v-3.62a.53.53,0,0,1,.06-.24.44.44,0,0,1,.16-.17l1-.61a.14.14,0,0,1,.15,0,.2.2,0,0,1,.07.16v6.92a.55.55,0,0,1-.07.24.36.36,0,0,1-.15.17Z" style="fill:#455a64"></path><path d="M113.38,164.78a.14.14,0,0,1,.15,0,.18.18,0,0,1,.07.17v4.27a5.45,5.45,0,0,1-.18,1.41,5.19,5.19,0,0,1-.5,1.24,5.27,5.27,0,0,1-.78,1,4.82,4.82,0,0,1-1,.77,2.81,2.81,0,0,1-1,.37,1,1,0,0,1-.77-.14,1.29,1.29,0,0,1-.5-.66,3.64,3.64,0,0,1-.17-1.2v-4.28a.57.57,0,0,1,.06-.24.36.36,0,0,1,.15-.17l1-.61a.15.15,0,0,1,.16,0,.21.21,0,0,1,.06.17v4.23a1.22,1.22,0,0,0,.24.87q.24.23.72-.06a1.73,1.73,0,0,0,.72-.77,2.81,2.81,0,0,0,.23-1.15V165.8a.47.47,0,0,1,.07-.24.36.36,0,0,1,.15-.17Z" style="fill:#455a64"></path><path d="M117.18,162.59a3.21,3.21,0,0,1,.92-.38,1.07,1.07,0,0,1,.7.07,1,1,0,0,1,.45.53,2.77,2.77,0,0,1,.15,1,4.56,4.56,0,0,1-.15,1.19,4.42,4.42,0,0,1-.45,1,4.17,4.17,0,0,1-.7.88,4.91,4.91,0,0,1-.92.69l-1,.59v2.19a.53.53,0,0,1-.06.24.44.44,0,0,1-.16.17l-1.05.61a.14.14,0,0,1-.15,0,.2.2,0,0,1-.06-.16v-6.92a.53.53,0,0,1,.06-.24.36.36,0,0,1,.15-.17Zm-1,3.94,1-.57a1.74,1.74,0,0,0,.56-.52,1.37,1.37,0,0,0,.22-.77c0-.3-.08-.48-.22-.52a.7.7,0,0,0-.56.12l-1,.57Z" style="fill:#455a64"></path><path d="M76,198.89c.08,0,.14,0,.19,0a.2.2,0,0,1,.08.12l1.32,4.3a.65.65,0,0,1,0,.11.28.28,0,0,1,0,.15.22.22,0,0,1-.09.1l-.76.44c-.08.05-.14.06-.17,0a.15.15,0,0,1-.06-.1l-.17-.56-1.6.92-.17.76a.47.47,0,0,1-.07.17.4.4,0,0,1-.17.17l-.76.44a.07.07,0,0,1-.09,0,.11.11,0,0,1,0-.1s0-.07,0-.14l1.32-5.81a.79.79,0,0,1,.08-.23.5.5,0,0,1,.19-.19ZM75,203l1-.57-.48-1.64Z" style="fill:#455a64"></path><path d="M81,196a.13.13,0,0,1,.12,0,.14.14,0,0,1,0,.12V197a.41.41,0,0,1,0,.18.22.22,0,0,1-.12.13l-1.8,1v1.11l1.68-1a.11.11,0,0,1,.12,0,.17.17,0,0,1,0,.13v.85a.41.41,0,0,1,0,.18.3.3,0,0,1-.12.13l-1.68,1v1.73a.39.39,0,0,1,0,.18.34.34,0,0,1-.12.14l-.79.45a.08.08,0,0,1-.11,0s0-.06,0-.12V197.9a.31.31,0,0,1,0-.18.36.36,0,0,1,.11-.13Z" style="fill:#455a64"></path><path d="M84.87,193.75a.11.11,0,0,1,.11,0s0,.06,0,.12v.85a.31.31,0,0,1,0,.18.27.27,0,0,1-.11.14l-1.06.61v4.12a.41.41,0,0,1,0,.18.36.36,0,0,1-.11.13l-.79.45a.09.09,0,0,1-.12,0s0-.06,0-.12v-4.12l-1.06.61s-.09,0-.12,0a.14.14,0,0,1,0-.12v-.85a.41.41,0,0,1,0-.18.26.26,0,0,1,.12-.13Z" style="fill:#455a64"></path><path d="M88.59,195.94a.09.09,0,0,1,.12,0s0,.06,0,.12v.85a.39.39,0,0,1,0,.18c0,.06-.07.11-.12.13l-2.85,1.65s-.09,0-.12,0a.14.14,0,0,1-.05-.12v-5.19a.41.41,0,0,1,.05-.18.3.3,0,0,1,.12-.13l2.8-1.62s.09,0,.12,0a.14.14,0,0,1,0,.12v.85a.41.41,0,0,1,0,.18.22.22,0,0,1-.12.13L86.69,194v.86l1.72-1a.09.09,0,0,1,.12,0s0,.06,0,.12v.85a.39.39,0,0,1,0,.18c0,.06-.07.11-.12.13l-1.72,1v.9Z" style="fill:#455a64"></path><path d="M91.24,190.07a2.87,2.87,0,0,1,.71-.3.92.92,0,0,1,.53,0,.71.71,0,0,1,.34.38,2,2,0,0,1,.12.75,3.08,3.08,0,0,1-.19,1.11,3,3,0,0,1-.53.91l.75,1.48a.24.24,0,0,1,0,.08.31.31,0,0,1,0,.15.45.45,0,0,1-.09.1l-.82.47q-.12.08-.18,0a.39.39,0,0,1-.08-.1l-.67-1.33-.55.32v1.72a.31.31,0,0,1,0,.18.36.36,0,0,1-.11.13l-.79.46a.13.13,0,0,1-.12,0,.17.17,0,0,1,0-.13v-5.18a.39.39,0,0,1,0-.18c0-.07.07-.11.12-.13Zm-.68,2.83.68-.39a1.51,1.51,0,0,0,.42-.37.94.94,0,0,0,.17-.57c0-.22-.06-.34-.17-.37a.65.65,0,0,0-.42.12l-.68.39Z" style="fill:#455a64"></path><path d="M96.94,192.18a.39.39,0,0,1,0,.18c0,.07-.07.11-.12.13L96,193a.08.08,0,0,1-.11,0,.14.14,0,0,1,0-.12v-1.71l-1.39-2.61a.15.15,0,0,1,0-.09.4.4,0,0,1,0-.15.36.36,0,0,1,.1-.11l.82-.47q.12-.08.18,0a.29.29,0,0,1,.08.08l.75,1.54.77-2.42a1.28,1.28,0,0,1,.07-.16.39.39,0,0,1,.18-.18l.83-.48a.08.08,0,0,1,.09,0,.11.11,0,0,1,0,.1.74.74,0,0,1,0,.12l-1.4,4.21Z" style="fill:#455a64"></path><path d="M98.52,188a3.91,3.91,0,0,1,.15-.94,4.38,4.38,0,0,1,.37-.9,4,4,0,0,1,.57-.8,3.48,3.48,0,0,1,.79-.63,1.73,1.73,0,0,1,.78-.27.84.84,0,0,1,.58.13.93.93,0,0,1,.37.47,2.2,2.2,0,0,1,.15.77c0,.22,0,.46,0,.71s0,.49,0,.71a4.16,4.16,0,0,1-.52,1.84,3.48,3.48,0,0,1-.58.8,3.37,3.37,0,0,1-.78.63,2,2,0,0,1-.79.28.83.83,0,0,1-.57-.13,1.07,1.07,0,0,1-.37-.48,2.2,2.2,0,0,1-.15-.77c0-.21,0-.44,0-.7S98.51,188.2,98.52,188Zm2.65-.14c0-.1,0-.21,0-.33v-.72c0-.11,0-.21,0-.3a1,1,0,0,0-.07-.33.37.37,0,0,0-.37-.28.83.83,0,0,0-.33.12,1.35,1.35,0,0,0-.32.26,1.55,1.55,0,0,0-.24.33,1.57,1.57,0,0,0-.14.38,1.34,1.34,0,0,0-.06.4,3,3,0,0,0,0,.32v.72a2.69,2.69,0,0,0,0,.31.76.76,0,0,0,.2.55c.13.1.31.09.56-.06a1.34,1.34,0,0,0,.55-.58A2.17,2.17,0,0,0,101.17,187.83Z" style="fill:#455a64"></path><path d="M106.44,181.3a.09.09,0,0,1,.12,0s0,.06,0,.12v3.2a4.05,4.05,0,0,1-.13,1.06,3.49,3.49,0,0,1-.38.93,3.44,3.44,0,0,1-.58.78,3.4,3.4,0,0,1-.74.57,2,2,0,0,1-.75.28.83.83,0,0,1-.57-.1,1,1,0,0,1-.38-.5,2.77,2.77,0,0,1-.13-.9v-3.21a.49.49,0,0,1,0-.18.36.36,0,0,1,.11-.13l.79-.45s.09,0,.12,0a.14.14,0,0,1,0,.12v3.17a.89.89,0,0,0,.17.65q.18.18.54,0a1.34,1.34,0,0,0,.54-.59,1.94,1.94,0,0,0,.18-.86v-3.17a.31.31,0,0,1,.05-.18.36.36,0,0,1,.11-.13Z" style="fill:#455a64"></path><path d="M109.2,179.71a2.17,2.17,0,0,1,.71-.3.78.78,0,0,1,.53,0,.65.65,0,0,1,.34.38,1.87,1.87,0,0,1,.12.74,3.27,3.27,0,0,1-.19,1.11,2.86,2.86,0,0,1-.53.91l.75,1.48a.22.22,0,0,1,0,.08.4.4,0,0,1,0,.15.24.24,0,0,1-.1.1l-.82.48c-.08,0-.13,0-.17,0l-.08-.09-.67-1.34-.55.32v1.72a.41.41,0,0,1,0,.18.26.26,0,0,1-.12.13l-.78.46a.13.13,0,0,1-.12,0,.15.15,0,0,1,0-.12V181a.41.41,0,0,1,0-.18.26.26,0,0,1,.12-.13Zm-.68,2.82.68-.39a1.37,1.37,0,0,0,.42-.37.93.93,0,0,0,.16-.56c0-.23,0-.35-.16-.37a.58.58,0,0,0-.42.11l-.68.39Z" style="fill:#455a64"></path><path d="M114.62,176.57a1.89,1.89,0,0,1,.76-.27,1,1,0,0,1,.6.12,1.06,1.06,0,0,1,.39.48,2.33,2.33,0,0,1,.16.81v1.14a4.18,4.18,0,0,1-.16,1,4.17,4.17,0,0,1-1,1.73,3.35,3.35,0,0,1-.76.6l-1.62.93a.11.11,0,0,1-.12,0,.17.17,0,0,1,0-.13v-5.18a.46.46,0,0,1,0-.19.38.38,0,0,1,.12-.13Zm.79,1.76c0-.61-.29-.76-.82-.46l-.61.36v3.05l.64-.37a1.53,1.53,0,0,0,.79-1.38c0-.11,0-.22,0-.32v-.58C115.42,178.54,115.42,178.44,115.41,178.33Z" style="fill:#BA68C8"></path><path d="M117.08,177.25a3.76,3.76,0,0,1,.15-.93,3.56,3.56,0,0,1,.37-.9,4.09,4.09,0,0,1,.57-.81A3.44,3.44,0,0,1,119,174a1.9,1.9,0,0,1,.78-.28.91.91,0,0,1,.58.13,1,1,0,0,1,.37.48,2.14,2.14,0,0,1,.15.76c0,.23,0,.46,0,.72s0,.48,0,.71a3.76,3.76,0,0,1-.15.93,4.24,4.24,0,0,1-.37.91,4.08,4.08,0,0,1-.58.8,3.61,3.61,0,0,1-.78.62,2,2,0,0,1-.79.29.88.88,0,0,1-.57-.14.92.92,0,0,1-.37-.48,2.14,2.14,0,0,1-.15-.76c0-.22,0-.45,0-.7S117.07,177.48,117.08,177.25Zm2.65-.14c0-.1,0-.21,0-.33v-.71c0-.12,0-.22,0-.31a1,1,0,0,0-.07-.33.46.46,0,0,0-.14-.21.31.31,0,0,0-.23-.06.68.68,0,0,0-.33.11,1.65,1.65,0,0,0-.32.26,2.29,2.29,0,0,0-.24.33,1.74,1.74,0,0,0-.14.38,1.85,1.85,0,0,0-.07.41c0,.09,0,.2,0,.31v.72c0,.12,0,.22,0,.32a.77.77,0,0,0,.21.54c.12.11.31.09.56,0a1.36,1.36,0,0,0,.55-.59A2.38,2.38,0,0,0,119.73,177.11Z" style="fill:#BA68C8"></path><path d="M123.27,172.78a1.34,1.34,0,0,0-.34.28,1.5,1.5,0,0,0-.23.33,1.71,1.71,0,0,0-.13.38,2.32,2.32,0,0,0-.06.38,2.63,2.63,0,0,0,0,.3c0,.13,0,.25,0,.39s0,.25,0,.38,0,.22,0,.28a1.4,1.4,0,0,0,.06.32.43.43,0,0,0,.13.22.31.31,0,0,0,.23.08,1,1,0,0,0,.34-.12,2.1,2.1,0,0,0,.3-.22,1.68,1.68,0,0,0,.24-.29,1.38,1.38,0,0,0,.16-.37,1.56,1.56,0,0,0,.06-.44l-.51.29a.11.11,0,0,1-.11,0,.17.17,0,0,1,0-.13V174a.45.45,0,0,1,0-.18.36.36,0,0,1,.11-.13l1.46-.84a.13.13,0,0,1,.12,0,.15.15,0,0,1,0,.12v1a3.47,3.47,0,0,1-.14,1,4.2,4.2,0,0,1-.4.92,3.81,3.81,0,0,1-.59.78,3.1,3.1,0,0,1-.74.58,1.74,1.74,0,0,1-.77.27.85.85,0,0,1-.58-.13.92.92,0,0,1-.37-.48,2.13,2.13,0,0,1-.15-.75c0-.22,0-.45,0-.7s0-.5,0-.73a3.88,3.88,0,0,1,.14-.93,5,5,0,0,1,.37-.9,4.6,4.6,0,0,1,.58-.81,3.33,3.33,0,0,1,.78-.62,1.94,1.94,0,0,1,.76-.27,1.13,1.13,0,0,1,.57.08.89.89,0,0,1,.37.35.93.93,0,0,1,.14.49.19.19,0,0,1,0,.14.27.27,0,0,1-.1.11l-.8.46c-.06,0-.11,0-.14,0l-.1-.09a.52.52,0,0,0-.23-.13A.71.71,0,0,0,123.27,172.78Z" style="fill:#BA68C8"></path></g></g><g id="freepik--Dog--inject-18"><g id="freepik--dog--inject-18"><path d="M84.79,338.3q-.69-2.32-1.6-4.57a93.17,93.17,0,0,0-7.62-13.88l-8-12.77c-2.35-3.77-5.23-7.4-6.25-11.78-3.86-16.58,8.86-25.2,9.87-30s-9.34-4.11-16.78,10.84c-5.57,11.19-4.79,22.55,1.07,33.79,4.42,8.48,10.72,15.9,15.24,24.26,4,7.38,3.82,16.25,3,24.6-.6,6-1.48,12.09-.12,18,.83,3.57,3.45,9.7,7.45,10.77,4.65,1.23,7.68-3.61,7.57-7.59a56.13,56.13,0,0,0-.81-5.9,65.53,65.53,0,0,1-.27-9.91C87.66,355.42,87.25,346.57,84.79,338.3Z" style="fill:#37474f"></path><path d="M168.13,338.18a22.32,22.32,0,0,1,3.34,2.27,26,26,0,0,1,4.61,5c5.74,7.86,7.94,18.75,3.83,27.57-4.34,9.33-15.14,14.7-25.42,14.13,4.5,2.05,9.95.46,14.69,1.93,2.39.75,4.19,3.34,4.65,5.8s-.3,5-3.41,5c0,1.21-2.29,3.41-6.35,2.3-.21.89-.71,2.5-7.48,1.36S130,394.35,122,389.76a47.63,47.63,0,0,1-8.92-6.11,31.89,31.89,0,0,1-9.7-16.95c-1.88-8.14-1.23-16.64-.1-24.92,1.81-13.33,5-28.95,20.13-32.56a11.93,11.93,0,0,1,5.31-.25,11.17,11.17,0,0,1,6.66,5.11c3.59,5.53,3.74,12.57,3.35,19.15-.31,5.4,3.69,2.75,7.12,2.18a44.08,44.08,0,0,1,10.7-.57A28.74,28.74,0,0,1,168.13,338.18Z" style="fill:#37474f"></path><path d="M170.42,399.87c.48-2.86.3-6.29-2.41-7.46s-7.67-.9-7.67-.9,6.59-1,9,.54S171.2,397.68,170.42,399.87Z" style="fill:#263238"></path><path d="M164.07,402.16c.48-2.86.3-6.29-2.41-7.46s-7.67-.91-7.67-.91,6.59-1,9,.54S164.86,400,164.07,402.16Z" style="fill:#263238"></path><path d="M149.65,378.77a3.11,3.11,0,0,1-3.32-1.81c1.18,3-.71,6.49-3.5,8s-6.2,1.5-9.35,1c-11.24-1.87-21.48-10.07-24.73-21-1.73-5.82-1.51-12.08-.3-18a58,58,0,0,1,11.29-24.25c4.31-5.46,9.89-10.3,16.66-11.91s14.8.78,18.18,6.85a19.6,19.6,0,0,1,2,6.75c1.24,8.64-.43,17.39.62,26,.67,5.5,2,11.14,1,16.69C157.36,371.61,155.08,378.19,149.65,378.77Z" style="fill:#37474f"></path><path d="M119.34,354.5a17.71,17.71,0,0,1,10.21-1.12c2.5.38,5.15,1.21,6.64,3.25.32-1.67,2.73-2.15,4.17-1.22s2.1,2.65,2.68,4.26c.4-2.41,1-5.17,3.21-6.28s5.22.41,6.73,2.13a12.85,12.85,0,0,1,2.51,4.92c.37-.78,1.49-.77,2.32-.51.24.08.47.18.7.28a26.24,26.24,0,0,1-.29,6.91c-.86,4.49-3.14,11.07-8.57,11.65a3.11,3.11,0,0,1-3.32-1.81c1.18,3-.71,6.49-3.5,8s-6.2,1.5-9.35,1a31.79,31.79,0,0,1-9.36-3.13,51.27,51.27,0,0,1-8.88-13.64,14.47,14.47,0,0,1-1.74-6.66C113.68,359.06,116.21,356,119.34,354.5Z" style="fill:#263238"></path><path d="M183.41,287.63c.22.39.43.78.64,1.18,3.49,6.46,5.74,14.12,3.4,21.35-2.46,7.57-9.31,13.86-15.76,18.14-3.52,2.33-13.87,8-17,2.23-.85-1.56-.8-3.43-.85-5.21-.07-2.26-.38-4.64-1.74-6.45s-4.06-2.79-6-1.58c-1.53,1-2.09,2.93-2.26,4.74s-.12,3.7-.9,5.33a2.1,2.1,0,0,1-.86,1,8.12,8.12,0,0,1-1.87.29c-3.93.94-2.78,11.64-2.38,14.48.18,1.26.15,2.9-1,3.36a3.1,3.1,0,0,1-2.52-.62,19.58,19.58,0,0,0-5.78-2.11c-.69-.13-1.59-.12-1.85.53s.28,1.19.68,1.7a5.77,5.77,0,0,1,1.22,3,1.12,1.12,0,0,1-.18.86,1.19,1.19,0,0,1-.79.28c-1.59.12-3.19-.08-4.78,0-4.25.09-8.15,4-8,8.3,10.43-4.4,20.38,2.79,26.06,11.12a24.5,24.5,0,0,1,4.3,15.61,22.93,22.93,0,0,1-4.35,12.14c-3,4.41-11.48,9.53-16.38,9.38a47.83,47.83,0,0,0,7,1.61c7.33,1.25,9.62.48,13.28,1.61,2.4.75,4.19,3.34,4.65,5.8s-.29,5-3.4,5c0,1.21-2.29,3.42-6.35,2.3-.21.89-.71,2.5-7.48,1.36s-26.58-9.16-34.64-13.75a48.28,48.28,0,0,1-8.92-6.11,31.94,31.94,0,0,1-9.69-17c-1.88-8.14-1.23-16.64-.11-24.92,4.7-34.55,23.57-51.56,30.66-58.73,5.55-5.61,12-9.87,18.8-13.72,6.4-3.61,8.72-5.09,13.78-10.21,2.28-2.31,6.1-7.94,8.15-10.45,1.82-2.24,5.54-5.92,7.85-9.66,0,0,7.23,6.65,9.61,8.69A71.75,71.75,0,0,1,183.41,287.63Z" style="fill:#455a64"></path><path d="M146,420.7c.47-2.86.29-6.29-2.41-7.46s-7.67-.9-7.67-.9,6.58-1,9,.54S146.82,418.51,146,420.7Z" style="fill:#263238"></path><path d="M139.69,423c.48-2.86.3-6.29-2.41-7.46s-7.67-.91-7.67-.91,6.59-1,9,.55S140.48,420.79,139.69,423Z" style="fill:#263238"></path><path d="M212.81,327.67c-1.05,18.45-7.19,32.15-9.13,41.93-1.5,7.59-2.44,9.79-2.5,13.28A28.19,28.19,0,0,0,203,394.3a22.34,22.34,0,0,0,6.11,8.85c5.28,4.22,8.18,4.73,8.11,8.09-.11.55-.62,3.09-3,3-.77,2.39-4,2-4,2s-1.47,3.94-10.51,0c-3.6-1.55-5.28-3.35-6.85-10-.75-3.15-1.55-7.87-3.53-14.42a40.2,40.2,0,0,1-1.85-8.48s-1.46-.29-2.08,2a9.2,9.2,0,0,1,.1-6,29.7,29.7,0,0,0,.93-11.77,170.15,170.15,0,0,0-3.3-17.89c-2.09.53-5.1,1.07-8.32,1.62-1.65,7.2-2.62,16.6-3.29,26.16s-4.82,16.38-4.13,21.54,2.17,13.9,7.18,19.55c4.72,5.31,8.9,4.67,8.37,10.42a3.18,3.18,0,0,1-3.18,2.67c-.77,2.39-4,2-4,2s-1.13,3-10.51,0c-5-1.58-5.88-7.79-6.84-10.89a120.92,120.92,0,0,0-5-13.22,25,25,0,0,1-2.2-9.14c-1.24-.66-3.79.75-3.79.75a5.62,5.62,0,0,1,2.67-4.78c-3.68-2-2.24-5.21-2.24-5.21s2,2.56,3.78.07,1.22-12.31,0-27.05-2.37-20.63-4.69-28.46c-6.16-20.85,14.32-72.37,28.33-71.63,9.73.63,27.33,2.53,29.46,19.44C206.38,297.09,214.08,305.5,212.81,327.67Z" style="fill:#455a64"></path><path d="M175.73,433.62c.47-1.24.88-3.29-.91-4.15s-3.86-2-3.86-2a38.07,38.07,0,0,1,4.91,1.93C176.76,430,177.05,431.73,175.73,433.62Z" style="fill:#37474f"></path><path d="M179.73,431.66c.47-1.24.89-3.29-.9-4.16s-3.87-2-3.87-2a37.51,37.51,0,0,1,4.91,1.93C180.77,428,181.06,429.76,179.73,431.66Z" style="fill:#37474f"></path><path d="M210.19,416.2c.47-1.24.89-3.29-.91-4.15s-3.86-2-3.86-2a38.07,38.07,0,0,1,4.91,1.93C211.22,412.57,211.51,414.31,210.19,416.2Z" style="fill:#37474f"></path><path d="M214.19,414.24c.47-1.25.89-3.29-.9-4.16s-3.87-2-3.87-2a39,39,0,0,1,4.91,1.93C215.23,410.6,215.52,412.34,214.19,414.24Z" style="fill:#37474f"></path><path d="M189,295.24a25.08,25.08,0,0,1-2.88,5.35c-2.15,3-5.05,5.37-7.53,8.1s-4.62,6.06-4.71,9.75c0-.24,3.31-1.35,3.67-1.48-.57,1.44-1.78,2.66-2.35,4.21a13.48,13.48,0,0,0-.79,5.41,14.68,14.68,0,0,1,4.1-3.91c-.63.4-.95,2.93-1.09,3.64a20,20,0,0,0-.41,3.94c0,2.15,0,4.31,0,6.48a51.46,51.46,0,0,1-2.19,14.59l6.2-1.1a40,40,0,0,0,10.54-4.17c5.71-2.92,8.9-5.42,12.51-10.7,10.07-14.74,4.34-35.32-7.92-46.85a6.18,6.18,0,0,0-2.08-1.44,2.28,2.28,0,0,0-2.37.4,3.47,3.47,0,0,0-.75,1.69A44.82,44.82,0,0,1,189,295.24Z" style="fill:#37474f"></path><path d="M213.76,216.58a12.57,12.57,0,0,1,2.72,1c3.38,1.67,5.63,5.07,6.86,8.65s1.55,7.37,2.09,11.1,1.31,7.54,3.28,10.76c.77,1.24,1.73,2.74,1,4-1.59,3-7.63,1.33-10,.39-4.59-1.85-7.52-6.4-9.34-11a171.93,171.93,0,0,1-5.83-16.94c-.28-1-.3-2.27-.65-3.24a17.18,17.18,0,0,0-2.1-3.23c-.27-.41-.53-1-.18-1.32a1,1,0,0,1,.69-.21C206.05,216.3,210.09,215.73,213.76,216.58Z"></path><path d="M205.77,269.51c-1,2-1.6,7.66-1.09,13.73-2.61,1.2-18,2.89-28.5-1.84-12.88-5.77-17.58-11.44-21.39-15.79,5.38-5.88,10.38-30.35,10.38-30.35Z" style="fill:#455a64"></path><path d="M193.28,216.54c10.05-.78,12.54,2,16.37,4.87a27.83,27.83,0,0,1,7.59,9.31c1.55,2.83.11,8.42.69,10.4s5.46,6.44,6.77,9.94,0,6.57-1.08,11.25-4.77,5.27-4.77,5.27a12.22,12.22,0,0,1-7.07,5.21c-4.72,1.15-11.25-1.91-11.25-1.91s-2.82,3.07-9.43,1c-9.68-3-10.68-1.59-15.84-3.66-9-3.62-9.6-7.91-13-16.22s-3.19-16.55,6.73-26.18C176.74,218.26,184.93,217.18,193.28,216.54Z" style="fill:#455a64"></path><path d="M195.28,271.13a7.31,7.31,0,0,0,1.75,5.16,6.79,6.79,0,0,0,3.43,1.67,6.53,6.53,0,0,0,2.49.11,5.25,5.25,0,0,0,3.76-3.21c.33-.78.49-1.61.76-2.41a20.47,20.47,0,0,1,2.9-5.15c-.05.07-.94.24-1.12.38a5.22,5.22,0,0,1-1,.69,7.82,7.82,0,0,1-2.87.58,8.92,8.92,0,0,1-4.75-1.28,12,12,0,0,1-3.22-3.29,10.39,10.39,0,0,0-2.11,6.49Z" style="fill:#ffa8a7"></path><path d="M202.36,268.52c-.21-.38-.91-.27-1.31,0a4,4,0,0,0-1.18,1.67,6.64,6.64,0,0,0-.47,2.29,4.15,4.15,0,0,0,.59,2.66c0,.07.12.15.21.15s.2-.19.21-.33l.15-1.71a8.83,8.83,0,0,1,.18-1.27,5.66,5.66,0,0,1,1.12-2.11,2.38,2.38,0,0,0,.52-.82A.66.66,0,0,0,202.36,268.52Z" style="fill:#f28f8f"></path><path d="M202.5,261.38a.43.43,0,0,1-.21.59.44.44,0,0,1-.59-.2.45.45,0,0,1,.21-.6A.45.45,0,0,1,202.5,261.38Z" style="fill:#37474f"></path><path d="M206.45,260.68a.46.46,0,0,1-.21.6.45.45,0,0,1-.39-.81A.46.46,0,0,1,206.45,260.68Z" style="fill:#37474f"></path><path d="M205.44,264.13a.45.45,0,1,1-.8.39.45.45,0,0,1,.8-.39Z" style="fill:#37474f"></path><path d="M212.76,265.28a6.4,6.4,0,0,1,1.35-.91,8.52,8.52,0,0,0,1.24-.85.75.75,0,0,1,.38-.15.84.84,0,0,1,.51.22,10.94,10.94,0,0,1,2.3,2.5.12.12,0,0,1,0,.11.13.13,0,0,1-.06.07,6.71,6.71,0,0,1-6.09.9c-.41-.14-1.16-.4-.78-.89A6.2,6.2,0,0,1,212.76,265.28Z"></path><path d="M198.23,236.79a7.1,7.1,0,0,0-2.45-3c-1.69-.93-3.8-.24-5.46.73a10.91,10.91,0,0,0-5.12,5.7,1.45,1.45,0,0,0-.09.82,1.34,1.34,0,0,0,.47.64,6.18,6.18,0,0,0,4,1.17,26.31,26.31,0,0,1,4.26.1c2.46.45,4.41,2.07,6.43,3.43.75.5,2.12,1.66,3.07,1.65,1.11,0,1.17-1,.75-1.85C202.46,242.86,200,240,198.23,236.79Z" style="opacity:0.1"></path><path d="M217.93,241.12c-.5-1.7,0-3.71,0-5.44s-2.29-2.79-3.69-3.3a3.43,3.43,0,0,0-2.85-.09,2.85,2.85,0,0,0-1.12,2.66c.18,3,3,4.75,5.4,6.12l1.36.75,1.89,1.05A4.71,4.71,0,0,1,217.93,241.12Z" style="opacity:0.1"></path><path d="M209.26,250.89a5.26,5.26,0,0,0-1.27,2,4.29,4.29,0,0,0,.21,3.35,4.51,4.51,0,0,0,3.14,2.14.17.17,0,0,0,.12,0s.07-.06.09-.1a1.26,1.26,0,0,0,0-1.09,2.57,2.57,0,0,1-.35-.8.67.67,0,0,1,.56-.67c1.21-.13,1,1.41,1,2.12a1.13,1.13,0,0,0,.1.58,1,1,0,0,0,.4.35c.73.43,1.45.87,2.17,1.32a1.57,1.57,0,0,0,.61.26,1.43,1.43,0,0,0,.58-.12,4.08,4.08,0,0,0,2.73-3c.09-.54,0-1.1.14-1.64a.52.52,0,0,1,.22-.39c.3-.18.75.12.87.39s0,1.18.38.67a3.81,3.81,0,0,0,.45-1.7c.28-2.16-.52-4.72-2.77-5.38a8.19,8.19,0,0,0-2.61-.24,23.49,23.49,0,0,0-3.64.44,7.85,7.85,0,0,0-2.16.72A4.67,4.67,0,0,0,209.26,250.89Z" style="fill:#263238"></path><path d="M218.7,265a14.42,14.42,0,0,1-1.57-1.15,3.28,3.28,0,0,1-.61-1.71c-.07-.63-.05-1.27-.09-1.9,0-.16-.05-.35-.2-.41a.31.31,0,0,0-.39.2,1.14,1.14,0,0,0,0,.49,3.64,3.64,0,0,1-.5,2,3.6,3.6,0,0,1-1.48,1.15c-2.62,1.47-4.42,3.88-7.55,4.44a8.43,8.43,0,0,1-8.11-3.52c-.63-.89-1.15-1.85-1.75-2.77-.06-.09-.17-.19-.26-.14a.2.2,0,0,0-.08.22,7.79,7.79,0,0,0,1.5,3.41,8.5,8.5,0,0,0,3.51,3.42c2.08,1,4.51,1.57,6.66.77a13.4,13.4,0,0,0,3.57-2.42c.76-.61,1.54-1.18,2.34-1.72a10.8,10.8,0,0,0,2-1.32,1.64,1.64,0,0,0,.21-.25,5,5,0,0,0,1.47,1.56,4.16,4.16,0,0,1,1.13,1.2,3.76,3.76,0,0,1,.37,1,3.07,3.07,0,0,0,1.24-.49A5.17,5.17,0,0,0,218.7,265Z" style="fill:#263238"></path><path d="M178.51,218.91a3.6,3.6,0,0,0-3.57-1.47,23.34,23.34,0,0,0-5.56,1.5c-6,2-14.84,4.74-16.49,11.74a19.59,19.59,0,0,0,.55,9.39c.79,3.07,1.9,6.06,2.42,9.19a25.42,25.42,0,0,1,.19,7.13,3,3,0,0,0,0,1.43,2.51,2.51,0,0,0,1.72,1.33c4.23,1.34,8.93-1.29,11.31-5s3-8.33,3.33-12.76a101.14,101.14,0,0,1,1.79-11.78c.51-2.61.88-6.52,4-7.48.51-.16,1.18-.29,1.28-.81a1.17,1.17,0,0,0-.12-.63A7.14,7.14,0,0,0,178.51,218.91Z"></path><path d="M192.78,268.33a22.89,22.89,0,0,0-6.42-2.49,45.9,45.9,0,0,1-6.47-2.16,13.63,13.63,0,0,1-4.84-3.45,11.12,11.12,0,0,1-1.48-2.13,18.25,18.25,0,0,1-1-3c-.07-.22-.56-.64-.68-.23-.51,1.76.46,3.87,1.4,5.33a12.73,12.73,0,0,0,4.77,4.15,30.21,30.21,0,0,0,6.53,2.38c1.27.33,2.55.61,3.82.93s2.81.86,4.25,1.17C192.91,268.84,192.93,268.43,192.78,268.33Z" style="fill:#263238"></path><path d="M187.6,227.88a9.52,9.52,0,0,0-4.42,4.44c-.21.58-.57,1.61.15,2s1.9-.51,2.49-.95a43.54,43.54,0,0,1,3.86-2.24,5.81,5.81,0,0,0,1.58-1.19c1.81-2.16-1.41-3.1-3-2.33Z" style="fill:#37474f"></path><path d="M211.74,224.53a9.5,9.5,0,0,1,5.41,3.15c.35.5,1,1.4.35,1.93s-2,0-2.65-.27a39,39,0,0,0-4.3-1.18,5.87,5.87,0,0,1-1.83-.74c-2.31-1.63.57-3.37,2.35-3Z" style="fill:#37474f"></path><path d="M195.1,237.88a2.37,2.37,0,0,1-.23,3.42,2.51,2.51,0,0,1-3.5-.09,2.38,2.38,0,0,1,.22-3.42A2.53,2.53,0,0,1,195.1,237.88Z" style="fill:#fff"></path><path d="M195.36,237.49a2.39,2.39,0,0,1-.23,3.42,2.54,2.54,0,0,1-3.51-.1,2.38,2.38,0,0,1,.23-3.42A2.52,2.52,0,0,1,195.36,237.49Z"></path><path d="M193.12,238.6a.75.75,0,0,0,1,.19.73.73,0,0,0,.23-1,.74.74,0,0,0-1-.19A.73.73,0,0,0,193.12,238.6Z" style="fill:#fafafa"></path><path d="M215.85,235.49a2,2,0,0,1-.2,2.9,2.13,2.13,0,0,1-3-.09,2,2,0,0,1,.19-2.9A2.15,2.15,0,0,1,215.85,235.49Z" style="fill:#fff"></path><path d="M216.06,235.15a2,2,0,0,1-.19,2.9,2.14,2.14,0,0,1-3-.08,2,2,0,0,1,.19-2.9A2.14,2.14,0,0,1,216.06,235.15Z"></path><path d="M214.17,236.1a.62.62,0,0,0,.87.15.61.61,0,0,0,.2-.85.64.64,0,0,0-.88-.16A.62.62,0,0,0,214.17,236.1Z" style="fill:#fafafa"></path><path d="M134,297.38a22.8,22.8,0,0,0-8,1.19,46.66,46.66,0,0,0,1.52,23.77c4.26,13,10.42,17.54,10.42,17.54a25.6,25.6,0,0,0,4.79-5.62C134.64,324.49,131.44,312.17,134,297.38Z" style="fill:#37474f"></path><path d="M177,336.73c-.15,7.52-.73,7.62-2.19,14.59a43.74,43.74,0,0,0,32.13-28.79c3.89-11.91-.14-29.76-.14-29.76l-2.27-14.12s-5.11,4.83-22.18.63a41.08,41.08,0,0,1-7.3-2.57c-1.9-.88-4.34-2.08-6.55-1.12a3.89,3.89,0,0,0-1.92,1.77,7.28,7.28,0,0,0-.94,2,5.21,5.21,0,0,0,.77,3.95c1.91,3.12,5.2,5.27,7.56,8a39.19,39.19,0,0,1,5.57,8.65,40.8,40.8,0,0,1,4,19.38,32.36,32.36,0,0,1-1.86,9.48,26.79,26.79,0,0,1-2,4.2C179.2,333.8,177,336,177,336.73Z" style="fill:#BA68C8"></path><path d="M146.81,335.43a16.77,16.77,0,0,1-7.05-5.88,9.78,9.78,0,0,0-2.91-3.21,5.13,5.13,0,0,0-5.45.76A3.72,3.72,0,0,0,130,331a9.14,9.14,0,0,0,1.2,2.91c2.11,3.62,5.34,6.26,8.71,8.66a46.47,46.47,0,0,0,8.21,4.72,9.25,9.25,0,0,1,1.59.65A79.46,79.46,0,0,0,146.81,335.43Z" style="fill:#BA68C8"></path><path d="M125,292.08c-.32,2-.51,4-.68,6.05-.27,3.35-1.36,9.61,3.07,10.73a9.16,9.16,0,0,0,1.38.19c2.3.18,4.52-.47,5.68-2.66a13.36,13.36,0,0,0,.86-2.8c3-11.16,6.53-16.2,7.6-17.95a44.69,44.69,0,0,1,3.88-5.47c5.74-6.88,11,1.53,15.21-3.88,2.12-2.75.78-4.74-1.32-7.5s-4.14-6.76-3.76-7.22q-2.78,3.3-5.56,6.59c-1.72,2-5.14,6-8.8,10C134.68,286.71,128.44,289.62,125,292.08Z" style="fill:#BA68C8"></path><path d="M162,276.29c2.12-2.75.78-4.74-1.32-7.5a31.49,31.49,0,0,1-2.33-3.59c-2.85,1.93-7.52,8.6-8.84,12.72C154.19,275.63,158.48,280.83,162,276.29Z" style="opacity:0.2"></path><path d="M149.51,277.92l8.84-12.72C155.5,267.13,150.83,273.8,149.51,277.92Z" style="opacity:0.2"></path><path d="M177.09,295.59a50.68,50.68,0,0,0,7.9-15.71Z" style="opacity:0.2"></path><path d="M185,279.88h0c-.86-.18-1.74-.38-2.67-.6a41.08,41.08,0,0,1-7.3-2.57c-1.9-.88-4.34-2.08-6.55-1.12a3.89,3.89,0,0,0-1.92,1.77,7.28,7.28,0,0,0-.94,2,5.21,5.21,0,0,0,.77,3.95c1.91,3.12,5.2,5.27,7.56,8a38.3,38.3,0,0,1,3.14,4.26h0A50.68,50.68,0,0,0,185,279.88Z" style="opacity:0.2"></path><path d="M187.66,280.37s-1.48,7.28-8.92,18.06l1,2.11a45.37,45.37,0,0,0,10-19.86Z" style="fill:#fafafa"></path><path d="M201.43,280.14s4.44,8,5.34,12.86-1.26-8-1.26-8l-2.35-5.5Z" style="fill:#fafafa"></path><path d="M183.18,285.08s-18.7-6.48-27.49-17.36a50.13,50.13,0,0,0-3.78,5.23c4.74,5.86,21.37,15.71,28.32,17.89A26.1,26.1,0,0,0,183.18,285.08Z" style="fill:#37474f"></path><path d="M183.1,323.06a30.42,30.42,0,0,1-.77,3.53c8.7,1.49,18.61,0,24.29-3.23.1-.28.2-.56.29-.83a32.7,32.7,0,0,0,.88-3.41C202.46,322.65,192.19,324.47,183.1,323.06Z" style="opacity:0.2"></path><path d="M205.11,320.58l0,.07c-.52.21-1.05.42-1.6.61a.89.89,0,0,1,0-.4,7.18,7.18,0,0,0,0-2.22,3.14,3.14,0,0,0-1-1.61,3.79,3.79,0,0,0-4-.46,6.57,6.57,0,0,0-3.34,3.09,10.05,10.05,0,0,0-.71,2.83,3.78,3.78,0,0,1-.19.79c-.63.08-1.27.13-1.91.18a2.92,2.92,0,0,1,.07-1c.13-.61.27-1.22.45-1.82.1-.29.2-.58.32-.87a9.64,9.64,0,0,1,3.34-4.14c2.26-1.57,5.23-2,7-.59a4.54,4.54,0,0,1,1.61,3.44A11.49,11.49,0,0,1,205.11,320.58Z" style="fill:#fafafa"></path><path d="M139.76,329.55a9.78,9.78,0,0,0-2.91-3.21,5.13,5.13,0,0,0-5.45.76A3.72,3.72,0,0,0,130,331a9.14,9.14,0,0,0,1.2,2.91,24.27,24.27,0,0,0,6,6.61,25.74,25.74,0,0,0,6-7.2A19.68,19.68,0,0,1,139.76,329.55Z" style="opacity:0.2"></path><path d="M137.22,340.49a25.74,25.74,0,0,0,6-7.2Z" style="opacity:0.2"></path><path d="M124.22,299.3c-.34,3.47-.79,8.56,3.17,9.56a9.16,9.16,0,0,0,1.38.19c2.3.18,4.52-.47,5.68-2.66a13.36,13.36,0,0,0,.86-2.8c.59-2.19,1.21-4.14,1.82-5.88A22.4,22.4,0,0,0,124.22,299.3Z" style="opacity:0.2"></path><path d="M124.22,299.3l12.91-1.59A22.4,22.4,0,0,0,124.22,299.3Z" style="opacity:0.2"></path><path d="M138.3,325.86c-.5-1.47-1-2.65-1.25-3.4s-1.09-1-2.39-.68a22.42,22.42,0,0,0-5.91,2.67c-1.15.92-.89,1.74-.49,2.71s1,2.16,1.5,3.18,1.25,1.64,3.1.8a31.63,31.63,0,0,0,4.74-2.45C138.6,327.94,138.8,327.32,138.3,325.86Zm-7.47,4.57a36.8,36.8,0,0,1-1.93-4.23c-.52-1.2,6.81-4.07,7.15-3.16s.92,2.15,1.51,3.37S131.26,330.94,130.83,330.43Z" style="fill:#263238"></path></g></g><g id="freepik--Poop--inject-18"><g id="freepik--Bag--inject-18"><path d="M240.56,370.85A20.55,20.55,0,0,1,243.7,360c.85-1.28,2.25-2.56,3.72-2.13s2,2.42,3.38,3.25c1.17.72,2.69.43,4,.81a4.14,4.14,0,0,1,2.58,2.26c.4.92.32,2.06,1,2.85a7.12,7.12,0,0,0,1.16,1,9,9,0,0,1,1.77,1.72c1.27,1.73.8,3.83-1.41,4.39-2.91.73-6,.22-9,.47a5.52,5.52,0,0,0-2.75.82c-.87.62-.65,1.59-1.19,2.4a2.34,2.34,0,0,1-1.15.79,7.85,7.85,0,0,1-2.3.52,1.46,1.46,0,0,1-.63-.06,1.37,1.37,0,0,1-.64-.7A14.39,14.39,0,0,1,241,374.6,15,15,0,0,1,240.56,370.85Z" style="fill:#BA68C8"></path><path d="M240.56,370.85A20.55,20.55,0,0,1,243.7,360c.85-1.28,2.25-2.56,3.72-2.13s2,2.42,3.38,3.25c1.17.72,2.69.43,4,.81a4.14,4.14,0,0,1,2.58,2.26c.4.92.32,2.06,1,2.85a7.12,7.12,0,0,0,1.16,1,9,9,0,0,1,1.77,1.72c1.27,1.73.8,3.83-1.41,4.39-2.91.73-6,.22-9,.47a5.52,5.52,0,0,0-2.75.82c-.87.62-.65,1.59-1.19,2.4a2.34,2.34,0,0,1-1.15.79,7.85,7.85,0,0,1-2.3.52,1.46,1.46,0,0,1-.63-.06,1.37,1.37,0,0,1-.64-.7A14.39,14.39,0,0,1,241,374.6,15,15,0,0,1,240.56,370.85Z" style="fill:#fff;opacity:0.5"></path><path d="M250.55,370.4a7.36,7.36,0,0,0-4.46,2.72,6.71,6.71,0,0,0-1.2,2.33,4.55,4.55,0,0,0-.06,2.66c.08.21.48.34.49,0s-.08-.83-.06-1.25a6.07,6.07,0,0,1,.23-1.26,6.5,6.5,0,0,1,1.14-2.18,12.94,12.94,0,0,1,3.93-2.86C250.61,370.55,250.63,370.39,250.55,370.4Zm-6.88,2a11.9,11.9,0,0,1,1.94-5.58c0-.06,0-.25-.09-.17A11.47,11.47,0,0,0,244,378.47c.15.3.69.27.55-.13A13.6,13.6,0,0,1,243.67,372.35Z" style="fill:#BA68C8;opacity:0.2"></path><path d="M248.41,376a5.87,5.87,0,0,0-5.43,1.1,5,5,0,0,0-1.45,5.24,1.68,1.68,0,0,0,1.2,1.23.34.34,0,0,0,.2,0c.11,0,.14-.2.18-.32a2.64,2.64,0,0,1,1.4-1.52,17,17,0,0,1,2-.73,9.57,9.57,0,0,0,2.32-1.23,2.9,2.9,0,0,0,1.4-2.15C250.22,376.72,249.1,376.19,248.41,376Z" style="fill:#BA68C8"></path><path d="M248.41,376a5.87,5.87,0,0,0-5.43,1.1,5,5,0,0,0-1.45,5.24,1.68,1.68,0,0,0,1.2,1.23.34.34,0,0,0,.2,0c.11,0,.14-.2.18-.32a2.64,2.64,0,0,1,1.4-1.52,17,17,0,0,1,2-.73,9.57,9.57,0,0,0,2.32-1.23,2.9,2.9,0,0,0,1.4-2.15C250.22,376.72,249.1,376.19,248.41,376Z" style="fill:#fff;opacity:0.6000000000000001"></path><path d="M234.3,401c-3,5.07-5.82,10.49-6.25,16.38-.52,7.36,3,14.08,10.12,16.6,4.78,1.69,9.62,1.86,14.58,1.84a33.08,33.08,0,0,0,14.64-3.4,15.13,15.13,0,0,0,6.75-7.41c1.79-4.19,1.3-6.84.93-10.54a43,43,0,0,0-6.69-19A36.46,36.46,0,0,0,252.89,382a13,13,0,0,0-3.94-1.31,5,5,0,0,0-3.92,1c-1.22,1.07-1.62,2.76-2.14,4.29C241.05,391.5,237.22,396.13,234.3,401Z" style="fill:#BA68C8"></path><path d="M234.3,401c-3,5.07-5.82,10.49-6.25,16.38-.52,7.36,3,14.08,10.12,16.6,4.78,1.69,9.62,1.86,14.58,1.84a33.08,33.08,0,0,0,14.64-3.4,15.13,15.13,0,0,0,6.75-7.41c1.79-4.19,1.3-6.84.93-10.54a43,43,0,0,0-6.69-19A36.46,36.46,0,0,0,252.89,382a13,13,0,0,0-3.94-1.31,5,5,0,0,0-3.92,1c-1.22,1.07-1.62,2.76-2.14,4.29C241.05,391.5,237.22,396.13,234.3,401Z" style="fill:#fff;opacity:0.6000000000000001"></path><path d="M236.77,418a7.63,7.63,0,0,0-.6,9.93,11.92,11.92,0,0,0,6.44,3.59,35.5,35.5,0,0,0,14.66.46,16.71,16.71,0,0,0,7.93-3c2.23-1.8,3.68-4.81,2.92-7.57a7.48,7.48,0,0,0-3.57-4.32,16.65,16.65,0,0,0-5.44-1.78,43.87,43.87,0,0,0-11.89-.5C243.69,415.12,239.43,415.43,236.77,418Z" style="fill:#b16668"></path><path d="M238.45,414a5.59,5.59,0,0,0-.72,2.91,5.48,5.48,0,0,0,1.57,3.59,7.86,7.86,0,0,0,3.49,2,23.5,23.5,0,0,0,4,1c4.56.56,9.26.6,13.5-1.08a10.18,10.18,0,0,0,3.28-2,5.39,5.39,0,0,0-.43-7.8c-1.34-1.39-3.48-1.91-5.36-2.38a27.72,27.72,0,0,0-12.84-.19,11,11,0,0,0-5.56,2.71A5.76,5.76,0,0,0,238.45,414Z" style="fill:#b16668"></path><path d="M242,409.23a3.85,3.85,0,0,0-.1,1.07,4.63,4.63,0,0,0,2.05,3.36,10.14,10.14,0,0,0,3.76,1.48c3.86.83,13.22.85,13.17-5a4.5,4.5,0,0,0-1.3-3.2c-1.31-1.27-3.46-1.3-4.38-3.09a3.34,3.34,0,0,1-.1-2.83,13.85,13.85,0,0,0-6.13,1.67c-2.28,1.22-4.61,2.51-6.12,4.68A5.56,5.56,0,0,0,242,409.23Z" style="fill:#b16668"></path><path d="M259.36,412.92c-4.45,1.95-9.22,1.67-13.86.66-.08.17.08.34.22.45a11.66,11.66,0,0,0,12.93.54,4.92,4.92,0,0,0,1.48-1.2,3,3,0,0,0,.55-1.1A13.45,13.45,0,0,1,259.36,412.92Z" style="fill:#9a4a4d"></path><path d="M260.23,422.86a.75.75,0,0,0,.12-.14,44.66,44.66,0,0,1-6.93.76,32.08,32.08,0,0,1-6-.42,20.3,20.3,0,0,1-5-1.35c-1.49-.65-3.21-1.71-3.87-3.27,0-.07-.1-.17-.17-.13s-.06.1-.05.17a6.53,6.53,0,0,0,1.06,3.09,6.74,6.74,0,0,0,2.87,2.15,20.51,20.51,0,0,0,7.76,1.35,26.9,26.9,0,0,0,8.6-1.35A3.64,3.64,0,0,0,260.23,422.86Z" style="fill:#9a4a4d"></path><path d="M266.44,420.18a7,7,0,0,0,3-4.65,18.21,18.21,0,0,0,0-5.66,29.86,29.86,0,0,0-9-18.71c-1.85-1.84-7.4-6.31-10-3.64a2.47,2.47,0,0,0-.55,2.1,7.27,7.27,0,0,0,.77,2.1,134.72,134.72,0,0,1,8.93,24.55,7.43,7.43,0,0,0,1.59,3.51A4.4,4.4,0,0,0,266.44,420.18Zm1.67,2.55a4.83,4.83,0,0,0-4.53.87c-1,1-1.33,2.46-.1,3.43a4.4,4.4,0,0,0,2.13.8,4.57,4.57,0,0,0,2.92-.39A2.75,2.75,0,0,0,268.11,422.73Z" style="fill:#fff;opacity:0.2"></path><g style="opacity:0.2"><path d="M246.21,383.23c0-.42-.8-.69-.79-.19a19.49,19.49,0,0,1-1.59,8c-.52,1.22-1.11,2.41-1.65,3.62a11,11,0,0,0-1.07,3.49c0,.08.07.12.1,0a18.41,18.41,0,0,1,1.44-3.47c.66-1.23,1.45-2.38,2-3.66A18.61,18.61,0,0,0,246.21,383.23Z" style="fill:#BA68C8"></path><path d="M248.23,382.77c-.17-.38-.86-.37-.66.11,1.29,3,1.38,6.24,1.3,9.42,0,.13.16.23.17.05C249.24,389.13,249.57,385.81,248.23,382.77Z" style="fill:#BA68C8"></path><path d="M259.1,394.34a29,29,0,0,0-4-7,32.29,32.29,0,0,0-2.69-3,20.58,20.58,0,0,0-3-2.6c-.41-.27-.9.22-.49.57,1.13,1,2.34,1.81,3.42,2.84a30.32,30.32,0,0,1,2.54,2.77,33.16,33.16,0,0,1,4.15,6.58C259.07,394.51,259.12,394.39,259.1,394.34Z" style="fill:#BA68C8"></path></g><path d="M242.42,383a1.84,1.84,0,0,0,1.08,1.29,5.75,5.75,0,0,0,3.31.17,6,6,0,0,0,3.09-1.57,3.48,3.48,0,0,0,1.07-2,5.45,5.45,0,0,0-.19-2.66,2.46,2.46,0,0,0-.68-1.14c-.06,0-.13-.09-.19-.07a.2.2,0,0,0-.11.13c-1,2-3.33,2.65-5.24,3.27C243.46,380.72,242.13,381.64,242.42,383Z" style="fill:#BA68C8"></path><path d="M242.42,383a1.84,1.84,0,0,0,1.08,1.29,5.75,5.75,0,0,0,3.31.17,6,6,0,0,0,3.09-1.57,3.48,3.48,0,0,0,1.07-2,5.45,5.45,0,0,0-.19-2.66,2.46,2.46,0,0,0-.68-1.14c-.06,0-.13-.09-.19-.07a.2.2,0,0,0-.11.13c-1,2-3.33,2.65-5.24,3.27C243.46,380.72,242.13,381.64,242.42,383Z" style="fill:#fff;opacity:0.5"></path><path d="M249.48,377.45l-.38.43a4.52,4.52,0,0,1-1.55,1c-.77.37-1.6.61-2.4.92l-1.34.53a3.15,3.15,0,0,0-1,.53,1.53,1.53,0,0,0-.43,1.62c0,.06.07,0,.07,0,0-.48.52-.88.9-1.11a5.1,5.1,0,0,1,1.11-.46c.75-.24,1.5-.49,2.25-.76a8.28,8.28,0,0,0,1.93-1,2.15,2.15,0,0,0,.88-1.35c0-.08.14-.62,0-.43Z" style="fill:#BA68C8;opacity:0.2"></path></g></g><g id="freepik--Character--inject-18"><g id="freepik--Chartacter--inject-18"><g id="freepik--Bottom--inject-18"><path d="M321.48,378.92c1.34-2.86,2.76-5,2.76-10.07s-1.78-30.61-2.86-58.36l32.77-.74c-2.22,20.52-7.71,56.2-7.73,59.64a7,7,0,0,0-.18,1.28c.05,7.16-8,11.11-14.19,16A117.53,117.53,0,0,1,315.18,398c-4.54,2.35-13.81,2.66-15-.27C307.77,391.74,317.64,387.11,321.48,378.92Z" style="fill:#ffa8a7"></path><path d="M287.24,405.53c-.39,0-.94,4.35,1.21,6.17,2.49,2.09,9.74,5.5,19.26,4.16s14.65-4.37,18.43-7.61,9.08-7.83,13.38-8.83c4-.93,8.32-2.8,9.59-4.06s1-6.77,1-6.77Z"></path><path d="M346.58,367.36s.72,0,1,1.29c.31,1.52.67,5.94,1.33,8.43.92,3.47,1.58,10.57,1.09,13.41s-7,4.87-11.16,6.52-9.13,5.08-13.42,8.71-13.82,7.58-20,7.75c-9.49.25-15.66-2.27-17.6-5.66-2.39-4.21-.58-6.68,10.26-11.87,2.06-1,9.26-5.37,11.71-7a54.77,54.77,0,0,0,7.35-5.62,11.73,11.73,0,0,0,2.21-2.3,17.33,17.33,0,0,0,1.38-2.8c.79-2,1.32-4.06,2.08-6.05a4.13,4.13,0,0,1,.61-1.18,3,3,0,0,1,2.58-.88c1.24,0,2.47,0,3.71.16a23.23,23.23,0,0,1,7.12,2c.65.3,1.3.56,1.57,1.23a8.16,8.16,0,0,1,.34,2.56c0,.64,0,1.28.05,1.92,0,.27-.11.76.27.64s.76-1.07.89-1.39c.29-.72.48-1.49.8-2.19a11.62,11.62,0,0,1,1.33-2.33,10.73,10.73,0,0,1,1.71-1.79,18,18,0,0,0,1.85-1.23A4.44,4.44,0,0,0,346.58,367.36Z" style="fill:#263238"></path><path d="M296.28,396.8c13.75.79,18.17,9.24,18.82,14.5a32.49,32.49,0,0,1-9.73,2.17c-9.49.25-16.05-2.26-18-5.65C285.12,403.85,286.59,400.61,296.28,396.8Z" style="fill:#fafafa"></path><path d="M316.88,396.7a.65.65,0,0,0,.42-.16.67.67,0,0,0,.08-.94c-1.94-2.33-7.49-5.37-12.47-4.77a.67.67,0,0,0-.59.74.66.66,0,0,0,.75.59c4.65-.55,9.75,2.45,11.28,4.3A.69.69,0,0,0,316.88,396.7Z" style="fill:#f0f0f0"></path><path d="M322.75,393.18a.73.73,0,0,0,.42-.16.67.67,0,0,0,.09-.95c-1.94-2.33-7.49-5.38-12.48-4.77a.67.67,0,0,0-.58.75.66.66,0,0,0,.74.59c4.66-.56,9.75,2.45,11.29,4.3A.67.67,0,0,0,322.75,393.18Z" style="fill:#f0f0f0"></path><path d="M328.19,389.17a.73.73,0,0,0,.42-.16.68.68,0,0,0,.08-.95c-1.93-2.33-7.51-5.37-12.47-4.77a.67.67,0,0,0,.16,1.34c4.65-.55,9.75,2.45,11.29,4.3A.66.66,0,0,0,328.19,389.17Z" style="fill:#f0f0f0"></path><path d="M333.51,385.16a.74.74,0,0,0,.42-.15.67.67,0,0,0,.09-.95c-2.66-3.3-8.63-5.43-13.61-4.82a.67.67,0,1,0,.16,1.33c4.48-.54,10.05,1.41,12.41,4.34A.7.7,0,0,0,333.51,385.16Z" style="fill:#f0f0f0"></path><path d="M409.68,332.55c-.76,21.16-1.33,29.27-.36,46.59.19,3.34,1.39,26.31.71,33.28-1,10.46-14.26,10.09-15.43,4s-4.67-32.38-4.94-35.09c-.84-11.37-3.39-13-7.07-35.73-.61-3.11-.31-6.46-.89-9.33Z" style="fill:#ffa8a7"></path><path d="M390.37,421.07c.25,6.08,1.12,10.12,3.21,13.72s6.13,4.78,10.25,3.81,9.43-3.68,10.69-8.9,2-8.8,1.17-14.45Z"></path><path d="M409.21,377c1.69.16,2.05,8.32,2.89,16.51.9,8.76,2.59,12.83,3.41,20,.93,8.22-.48,11.86-3.43,16.77s-13.17,9.6-18.05,2.42c-4-5.85-4.93-11.88-4.42-20.06.52-8.46,0-14.33-.2-20.75-.23-6.15-1.48-12.36,0-13,.1.91.19,2.05.29,2.94a15.12,15.12,0,0,0,.49,3.28c.17.46.54.94.7.2a4.56,4.56,0,0,0,0-1.52,2.8,2.8,0,0,1,2.43-3,72.58,72.58,0,0,1,7.87-1c1.29-.07,6.61-.6,7.18.15a5,5,0,0,1,.53,2.38c.12,1.23.39,2.14.44,1.76.09-.89,0-3.19-.05-3.74s-.09-1.26-.09-1.79S409.24,377.5,409.21,377Z" style="fill:#263238"></path><path d="M415.9,418.26a20.54,20.54,0,0,1-3.37,12.41c-2.95,4.91-14,9.61-18.86,2.42-2.43-3.57-3-7.76-3.3-12C393.45,415.65,411.25,413.53,415.9,418.26Z" style="fill:#fafafa"></path><path d="M393.32,412.6a.54.54,0,0,0,.21-.05c.06,0,8.83-3.54,16.42-1.65a.63.63,0,0,0,.31-1.22c-8-2-17,1.59-17.26,1.72a.65.65,0,0,0-.31.84A.62.62,0,0,0,393.32,412.6Z" style="fill:#f0f0f0"></path><path d="M409.68,404.79a.65.65,0,0,0,.54-.42.64.64,0,0,0-.38-.8c-7.54-2.7-16.91,1.42-17.23,1.58a.62.62,0,0,0-.28.84.63.63,0,0,0,.84.28c.07,0,9.23-4,16.24-1.52A.51.51,0,0,0,409.68,404.79Z" style="fill:#f0f0f0"></path><path d="M409.5,399a.63.63,0,0,0,.54-.4.63.63,0,0,0-.37-.81c-8.29-3.14-17.24,1.35-17.53,1.52a.64.64,0,0,0-.23.86.63.63,0,0,0,.86.23c.07,0,8.74-4.35,16.46-1.44A.51.51,0,0,0,409.5,399Z" style="fill:#f0f0f0"></path><path d="M409.18,393.34a.62.62,0,0,0,.53-.39.63.63,0,0,0-.35-.82c-7.77-3.06-17.33,1.52-17.65,1.7a.64.64,0,0,0-.25.86.63.63,0,0,0,.86.24c.07,0,9.37-4.47,16.58-1.63A.55.55,0,0,0,409.18,393.34Z" style="fill:#ebebeb"></path><path d="M397.38,173.51c3,7.84,8.58,45,9,59.71,1.12,38.26.61,53.8,1,58.43s4,16.49,3.37,36.65c-.65,20-.65,40.21-.65,40.21s-3.07,3.79-10.55,5-12.29-1.9-12.29-1.9S375.89,323.71,373,309.9c-4.07-19.08-11.67-53.35-11.67-53.35l-5.81,33s2.33,11.65-.83,35.36c-2.68,20.05-5.7,34.94-5.7,34.94a32.12,32.12,0,0,1-13,2.73c-8.88-.23-12.56-4.55-12.56-4.55s-4.25-48.49-5.24-74.29c-.94-24.22-.88-67-.49-108.95Z" style="fill:#37474f"></path><path d="M322.53,351.65s2.24,2.85,12,4.14,15.76-1.63,15.76-1.63l-1.57,9.09s-5.45,3.17-15.41,1.7c-9.16-1.36-10.17-3.88-10.17-3.88Z" style="fill:#455a64"></path><path d="M384.9,363.27s4,2.35,13.72,1.06,12.11-4.45,12.11-4.45v9.89s-1.31,4.06-11.75,4.88-12.32-2.11-12.32-2.11Z" style="fill:#455a64"></path><path d="M332.51,213.27c1.93,7.5,12.05,11.1,17.57,12.18l7.23,32.22-1.84,31.89,5.81-33-6.81-35.71S341.32,221.74,332.51,213.27Z" style="fill:#263238"></path></g><g id="freepik--Top--inject-18"><path d="M253.3,132.57c2.59.44,4.25,3,10.82,9.63,4.67,4.72,13.5,13,20.67,17.91,8.59,5.85,13.19,5,22.23-4.85,11.48-12.51,21.89-31.13,21.89-31.13l4.62-31.62c-8.58.88-12.72.76-20.56,11.75-9.67,13.56-16.64,22-21.72,30.18,0,0-19.65-11-24.74-15a14.72,14.72,0,0,1-4.66-6.1c-1.24-3-2.07-4.43-2.92-6.39-.94-2.14-1.13-2.17-2.22-4.85s-2-7.23-2.31-8.23c-.66-1.12-2.35-1-3.74,1.82-.86,1.74-.63,4-.53,5.5.12,1.66.67,3.67.17,4s-2.89-.88-5.27-1.4-4.51-1.5-7.13-.66a3.11,3.11,0,0,0-2.07,4.16,4.11,4.11,0,0,0,1.44,1.57,3.32,3.32,0,0,0-2.52.83,3.62,3.62,0,0,0,0,4.6,2.08,2.08,0,0,0-2,1.86c-.25,1.56,0,3.1,1.52,3.68,0,0-1.28.33-1.35,1.08s0,2.56,1.27,3.41,4.48,1,4.48,1,.25.56,1.75,1.3c.52.25,2.68,2.47,4.81,3.56A24.09,24.09,0,0,0,253.3,132.57Z" style="fill:#ffa8a7"></path><path d="M291.25,134.44A17.4,17.4,0,0,1,299,145.72a13.27,13.27,0,0,0-6.78-12.84Z" style="fill:#f28f8f"></path><path d="M335.34,91.06c-10.59-.13-15.77,3.66-19.88,8.36-3.06,3.5-5.88,7.48-10.84,14.3-3.71,5.08-7.49,10.86-7.49,10.86s2.11,12.71,19.32,19.5l14.43-18.31Z" style="fill:#BA68C8"></path><path d="M242.87,121.57a1.35,1.35,0,0,1-.3,1.14,10.44,10.44,0,0,1-1.09,1.12,5.78,5.78,0,0,1-.59.52,2.69,2.69,0,0,1-.65.35l-1.53.59a6.76,6.76,0,0,0,1.67-.16,2.1,2.1,0,0,0,.82-.35,5.7,5.7,0,0,0,.67-.52,7,7,0,0,0,1.08-1.32,1.73,1.73,0,0,0,.22-.87,1.06,1.06,0,0,0-.19-.53,8,8,0,0,0,1.24-.49,4.16,4.16,0,0,0,1.71-1.24,3.12,3.12,0,0,0,.34-1,1.37,1.37,0,0,0,0-.35l.47-.71a9.09,9.09,0,0,0,2.28,3.69,11,11,0,0,0,4.49,2.83,9.72,9.72,0,0,1-3.95-3.66c-1.69-2.49-1.43-6.13-.77-8a.35.35,0,0,0,.11,0,1.6,1.6,0,0,0,.5-.63,2,2,0,0,0,0-1.46,4.15,4.15,0,0,0-.68-1.2,7.74,7.74,0,0,0-4.52-2.49,3.7,3.7,0,0,0-.66-.94,5.61,5.61,0,0,0-.92-.77,6.67,6.67,0,0,1,.82.86,3.3,3.3,0,0,1,.57,1l0,.06.07,0a8.07,8.07,0,0,1,4.22,2.58,2.2,2.2,0,0,1,.54,2.11c-.19.38-.33.49-.74.43s-.83-.12-1.26-.17c-.88-.12-1.75-.11-2.59-.2a10.46,10.46,0,0,1-2.44-.59c-.79-.3-1.56-.68-2.33-1.06a17,17,0,0,1-2.26-1.23,21.43,21.43,0,0,0,4.43,2.68,9,9,0,0,0,2.55.71c.87.1,1.73.12,2.56.24l.51.08a1.62,1.62,0,0,1,.57,1,1.75,1.75,0,0,1-.85,1.72,10.69,10.69,0,0,1-1.86,1.1,5.84,5.84,0,0,1-2,.51,14.86,14.86,0,0,1-4.15-1.19c-1.4-.5-2.8-1-4.22-1.42,1.33.66,2.69,1.25,4.05,1.84.68.3,1.37.57,2.07.84a4.35,4.35,0,0,0,3.65.21,2.09,2.09,0,0,1,1.17.72,1,1,0,0,1,.19.82,2.77,2.77,0,0,1-.35.85,4.33,4.33,0,0,1-1.57,1,4.07,4.07,0,0,1-1.79.5,7.39,7.39,0,0,1-1.86-.52,11.67,11.67,0,0,0-2-.38c-1.33-.17-2.67-.29-4-.34,1.32.29,2.64.52,3.95.78a17,17,0,0,1,1.93.45,7.5,7.5,0,0,0,2,.59A2.61,2.61,0,0,0,242.87,121.57Zm4.75-8.92,0,0h0Z" style="fill:#f28f8f"></path><g id="freepik--Chest--inject-18"><path id="freepik--chest--inject-18" d="M364.41,91.05c13.38,1.81,21.46,4.56,26.52,5.79,0,0,16.16,10,11.23,48.18a115.31,115.31,0,0,0-.72,26.88c.7,9,1.5,16.35,1.74,24.09,0,0-18,12.37-51.54,11-26.32-1-34.32-12.28-34.32-12.28s.45-22.56.6-49c.17-27.89,4.64-44.95,15.56-54.68C341.63,90.41,351,89.25,364.41,91.05Z" style="fill:#455a64"></path></g><g id="freepik--Head--inject-18"><path d="M376.59,35.44c-1.9-4.55-3.85-6.89-6-8.35-7.34-4.91-14.12-4.69-21.68-3.91-7.75.81-15.05,5.11-18.7,12.15a11.53,11.53,0,0,0-1.25,7.89c.43,1.81,1.42,3.48,1.65,5.33.26,2.05-.43,4.19.16,6.17a6.7,6.7,0,0,0,4.14,4.06c5.21,2,10.93,0,16.34.7,9.85,1.19,21,21.23,21.17,21.06,4.42-4.39,8.94-12.16,11.53-17.83a28.6,28.6,0,0,0,1.17-18.84A11.75,11.75,0,0,0,376.59,35.44Z" style="fill:#263238"></path><path d="M384,72.67a10.77,10.77,0,0,1,1.93,2.06,3.81,3.81,0,0,1,.88,2.84c-.2,1-1.38,1.82-2.27,1.32.55.31.38,2.9.34,3.45a10.24,10.24,0,0,1-1,3.75c-.77,1.53-5.52,5.23-6.41,2.06-.16-.54-.23-1.17-.67-1.51a3.92,3.92,0,0,1-1.91,1.73,1.42,1.42,0,0,1-1.53-.09c-.4-.39-.32-1-.33-1.6a6.22,6.22,0,0,0-2.14-3.94,15.69,15.69,0,0,1-2.54-2.8,8.57,8.57,0,0,1-.81-3,11,11,0,0,1,2.91-8.9,1.15,1.15,0,0,1,.45-.34,1.17,1.17,0,0,1,.76.07c2.3.73,4.6,1.46,6.89,2.21a20.77,20.77,0,0,1,4,1.64A9.73,9.73,0,0,1,384,72.67Z" style="fill:#263238"></path><path d="M379,74.65c-4.22,1.7-5.77-1.18-5.77-1.18l.16,20.14c-4.89,9.66-32.13,10.18-23.5-.81l-.11-5.66s-6.09,0-10-1.69c-5.12-2.26-6.91-7.84-7.85-13.94-1.16-7.57-.74-11.88.68-16.54.8-2.63-.43-4.36.2-7.47A18.91,18.91,0,0,1,337.75,38a2.62,2.62,0,0,1,.9-.69c.9-.37,1.89.17,2.74.63a23.31,23.31,0,0,0,20.49.67c.82-.37,1.93-.74,2.49,0a2,2,0,0,1,.19,1.55A28.33,28.33,0,0,0,364,47a17.13,17.13,0,0,0,3.87,8.71,2.81,2.81,0,0,1,.63,1.11,3.1,3.1,0,0,1-.09,1.17,11.07,11.07,0,0,0-.1,3.2,4.72,4.72,0,0,0,.62,2,2.17,2.17,0,0,0,1.76,1c2.23,0,3.38-3.29,5.19-4.17s5.67-1.63,7.89,3.14C385.2,66.18,383.8,72.71,379,74.65Z" style="fill:#ffa8a7"></path><path d="M359.71,85c8.82-3.62,10.83-10.91,10.83-10.91,0,10.92-11,15.64-20.69,15.5l-.05-2.75A24.44,24.44,0,0,0,359.71,85Z" style="fill:#f28f8f"></path><path d="M353.19,50.58l5.06,1.91a2.85,2.85,0,0,0-1.63-3.58A2.64,2.64,0,0,0,353.19,50.58Z" style="fill:#263238"></path><path d="M335,52.09l4.87-2.44a2.6,2.6,0,0,0-3.57-1.29A2.87,2.87,0,0,0,335,52.09Z" style="fill:#263238"></path><path d="M352.05,69.43l-6.35,2.73a3.32,3.32,0,0,0,4.43,1.9A3.65,3.65,0,0,0,352.05,69.43Z" style="fill:#b16668"></path><path d="M348.84,74.33a3.56,3.56,0,0,1,2.77-3.46,3.07,3.07,0,0,1,.67-.08,3.62,3.62,0,0,1-2.15,3.27A3.47,3.47,0,0,1,348.84,74.33Z" style="fill:#f28f8f"></path><path d="M356.72,56.45a2.21,2.21,0,1,1-2.24-2.18A2.22,2.22,0,0,1,356.72,56.45Z" style="fill:#263238"></path><path d="M340.85,54.78a2.2,2.2,0,0,1-2.63,2.74A2.18,2.18,0,0,1,336.61,56a2.2,2.2,0,1,1,4.24-1.18Z" style="fill:#263238"></path><path d="M348.24,53.12l-1.65,14.35-7.8-2.59C339.55,63.16,345.13,55.69,348.24,53.12Z" style="fill:#f28f8f"></path></g><path d="M391.31,200.2a24.6,24.6,0,0,1-2.32,1,38,38,0,0,1-10,1.57c-2.32.16-4.5-1.05-6.81-.76a6.13,6.13,0,0,0-3.47,1.38,4.66,4.66,0,0,0-1.48,4.08c.22,1.76,1.62,2.57,2.23,4.11a3.59,3.59,0,0,1,.08,2.48c-.14.37-.35.72-.52,1.09-1,2.28-.8,4.93,1.69,6.15,3,1.47,6.14-.08,8.68-1.69,3.15-2,7.12-2,10.85-2a8.59,8.59,0,0,1,2.43.26c.58.18,1.11.47,1.68.69a6.76,6.76,0,0,0,4.35.19,3.47,3.47,0,0,0,2.71-3,10,10,0,0,0-.21-3.41,8,8,0,0,0-1.93-2.93,1.67,1.67,0,0,1-.47-.86,1.8,1.8,0,0,1,.28-.91c.9-1.94.92-5.07-.47-6.78a5,5,0,0,0-3.77-1.71A7.82,7.82,0,0,0,391.31,200.2Z" style="fill:#fafafa"></path><path d="M376.09,208.29c-.51,1.27.18,3.44.48,4.5a1.94,1.94,0,0,0,2.1,1.64,24.42,24.42,0,0,0,5.66-.3c1.49-.19,3-.34,4.47-.64,1-.22,2.54-.31,2.58-1.66a27.62,27.62,0,0,0-.09-3.15,4.9,4.9,0,0,0-.39-1.77c-.53-1.08-1.92-1.12-3-1.15a29.18,29.18,0,0,0-10.54,1.49,2.43,2.43,0,0,0-1,.52A1.65,1.65,0,0,0,376.09,208.29Z" style="fill:#e0e0e0"></path><path d="M386.27,208.1a16.33,16.33,0,0,1,2.87.36,5,5,0,0,1,1.38.48,2.49,2.49,0,0,1,1.15,1.73c.24.84.46,1.69.65,2.54.43,1.86.39,4.1,1.26,5.8a12,12,0,0,0,3.48,4.12,7.3,7.3,0,0,0-2.82,1.55c-1.1,1-2,2.34-3.48,2.59-1.63.28-3.1-1-4.72-1.29a11.37,11.37,0,0,0-3.57.27c-1.07.16-2.58.26-3.45-.52.67-1.75,1.29-3.66,1.83-5.48a9.6,9.6,0,0,0,.15-6,2.45,2.45,0,0,0-.87-1.26,3.66,3.66,0,0,0-1.4-.58,5.63,5.63,0,0,0-2.24.06,7.33,7.33,0,0,1-.57-2.06.52.52,0,0,1,0-.22.44.44,0,0,1,.26-.18,36,36,0,0,1,6.38-1.65A20.73,20.73,0,0,1,386.27,208.1Z" style="fill:#BA68C8"></path><path d="M386.27,208.1a16.33,16.33,0,0,1,2.87.36,5,5,0,0,1,1.38.48,2.49,2.49,0,0,1,1.15,1.73c.24.84.46,1.69.65,2.54.43,1.86.39,4.1,1.26,5.8a12,12,0,0,0,3.48,4.12,7.3,7.3,0,0,0-2.82,1.55c-1.1,1-2,2.34-3.48,2.59-1.63.28-3.1-1-4.72-1.29a11.37,11.37,0,0,0-3.57.27c-1.07.16-2.58.26-3.45-.52.67-1.75,1.29-3.66,1.83-5.48a9.6,9.6,0,0,0,.15-6,2.45,2.45,0,0,0-.87-1.26,3.66,3.66,0,0,0-1.4-.58,5.63,5.63,0,0,0-2.24.06,7.33,7.33,0,0,1-.57-2.06.52.52,0,0,1,0-.22.44.44,0,0,1,.26-.18,36,36,0,0,1,6.38-1.65A20.73,20.73,0,0,1,386.27,208.1Z" style="fill:#fff;opacity:0.6000000000000001"></path><path d="M384.05,212.09a4.18,4.18,0,0,0-2.24-2.23c-.13,0-.14.2-.07.26a5.46,5.46,0,0,1,1.92,2.31,12.85,12.85,0,0,1,.72,3.68,48.7,48.7,0,0,0,1,7.44c0,.11.13,0,.13,0a41.81,41.81,0,0,0-.54-8A9.78,9.78,0,0,0,384.05,212.09Zm7.1,9.07c-.38-1.06-.88-2.06-1.23-3.14s-.63-2.31-1-3.45a9.46,9.46,0,0,0-3.48-5.34c-.08-.06-.13.16-.06.21,1.76,1.33,2.53,3.68,3.07,5.73.29,1.09.54,2.19.9,3.25a6.36,6.36,0,0,0,1.64,2.94C391.12,221.46,391.18,221.24,391.15,221.16Z" style="fill:#BA68C8;opacity:0.2"></path><g id="freepik--Arm--inject-18"><path d="M407.84,211.51c1.55-1.8,3.56-3.4,4.15-5.79a4,4,0,0,0-.68-3.59,1.7,1.7,0,0,1-.45-.65,1.58,1.58,0,0,1,0-.65,4.37,4.37,0,0,0-.26-2.68,2.77,2.77,0,0,0-1.76-1.41,6.44,6.44,0,0,0-.16-4.07c-.58-1.52-2.21-2.71-3.2-.95a14.24,14.24,0,0,0-1.13,2.74,32,32,0,0,0-1.32,7.26c-.18,2.56-.57,9.81,3.4,10C406.75,211.77,407.62,211.76,407.84,211.51Z" style="fill:#f28f8f"></path><path d="M393.72,99.69c11.31,2.32,15.72,8.57,23.42,19.25,8.93,12.37,17.62,24,20.64,30,3.73,7.42,4.56,10.29-3.25,18.56-4,4.26-9.68,9.36-15.4,15.1-4.52,4.53-10,9.35-14.35,14a4.13,4.13,0,0,0-1.27,4.21,29.18,29.18,0,0,1,.89,3,26.23,26.23,0,0,1-.2,4.05c0,1.36.45,2.9,1.7,3.44a4,4,0,0,0,1.94.17,13.89,13.89,0,0,1-3.66,2.14,5.71,5.71,0,0,1-4.15,0c-1.26-.56-2.23-1.71-3.56-2.07-.72-.19-1.48-.13-2.21-.3a3.6,3.6,0,0,1-1.92-1.17c-.78-.92-1.13-2.28-2.21-2.82a13.37,13.37,0,0,0-1.67-.49,3.66,3.66,0,0,1-2.12-2.66,10,10,0,0,1,0-3.53,90.55,90.55,0,0,1,1.64-9.4,9.37,9.37,0,0,1,1.42-2.91c.68-1,1.33-2.13,2.07-3.14,5-6.83,21-29.59,21-29.59l-16.82-18.89S384.51,121.72,393.72,99.69Z" style="fill:#ffa8a7"></path><path d="M407.84,211.51c-2.58,2.08-6.46,3.63-9.24,1.05a5.87,5.87,0,0,0-2.33-1.23c-1.72-.15-3.39-.38-4.22-2.07a5.85,5.85,0,0,0-1.63-2.12c-.86-.52-1.77-.41-2.38-.89a3.64,3.64,0,0,1-1.34-1.91c-.68-4,.77-8.57,1.47-12.56.51-2.51,2.36-4.42,3.65-6.59l3-4.21c5.75-8.16,12-17.21,17.62-25.42-5.89,8-12.33,16.93-18.12,25.05l-3,4.19C390,187,388,189,387.51,191.64s-1,5.07-1.35,7.63c-.18,1.69-.56,3.46,0,5.25a4.12,4.12,0,0,0,1.58,2.21c.81.57,1.81.46,2.43.86a5.64,5.64,0,0,1,1.49,1.92,4.07,4.07,0,0,0,2,1.79,11.52,11.52,0,0,0,2.58.41c1.67.32,2.82,2,4.54,2.3,2.64.6,5.13-.93,7.1-2.5Z" style="fill:#f28f8f"></path><path d="M412.4,155.56c4.77,4.4,12,4.55,14.61,4.3A15.17,15.17,0,0,1,411,157.62Z" style="fill:#f28f8f"></path></g><path d="M420.28,149.31a43.89,43.89,0,0,0,7.59-6.95,27.28,27.28,0,0,0,3.17-4.58c.12-.2.24-.43.37-.66-.19-.25-.36-.51-.55-.76-6.87-9.51-14-20.28-19.34-27.37-4.73-6.31-12.42-10.2-20.57-12.15-11.07,17.94.32,36,4.15,40.36,3.1,3.56,12.23,13.46,15.54,17.06A37.68,37.68,0,0,0,420.28,149.31Z" style="fill:#BA68C8"></path></g></g></g></svg>
